G75*
%MOIN*%
%OFA0B0*%
%FSLAX25Y25*%
%IPPOS*%
%LPD*%
%AMOC8*
5,1,8,0,0,1.08239X$1,22.5*
%
%ADD10C,0.00000*%
D10*
X0063780Y0019811D02*
X0063780Y0204189D01*
X0063796Y0204540D01*
X0063822Y0204891D01*
X0063855Y0205240D01*
X0063898Y0205589D01*
X0063949Y0205937D01*
X0064008Y0206283D01*
X0064076Y0206628D01*
X0064152Y0206971D01*
X0064237Y0207312D01*
X0064330Y0207651D01*
X0064432Y0207988D01*
X0064541Y0208322D01*
X0064659Y0208653D01*
X0064785Y0208981D01*
X0064919Y0209306D01*
X0065060Y0209628D01*
X0065210Y0209946D01*
X0065368Y0210260D01*
X0065533Y0210570D01*
X0065705Y0210876D01*
X0065885Y0211178D01*
X0066073Y0211475D01*
X0066268Y0211768D01*
X0066469Y0212056D01*
X0066678Y0212338D01*
X0066894Y0212616D01*
X0067116Y0212888D01*
X0067345Y0213154D01*
X0067581Y0213415D01*
X0067823Y0213670D01*
X0068071Y0213919D01*
X0068325Y0214162D01*
X0068585Y0214399D01*
X0068851Y0214629D01*
X0069122Y0214852D01*
X0069399Y0215069D01*
X0069680Y0215279D01*
X0069967Y0215482D01*
X0070259Y0215678D01*
X0070556Y0215866D01*
X0070857Y0216047D01*
X0071162Y0216221D01*
X0071472Y0216388D01*
X0071786Y0216546D01*
X0072103Y0216697D01*
X0072424Y0216840D01*
X0072749Y0216975D01*
X0073076Y0217102D01*
X0073407Y0217221D01*
X0073740Y0217332D01*
X0074077Y0217435D01*
X0074415Y0217529D01*
X0074756Y0217615D01*
X0075099Y0217693D01*
X0075443Y0217762D01*
X0075789Y0217823D01*
X0076137Y0217875D01*
X0076486Y0217919D01*
X0076835Y0217954D01*
X0077186Y0217980D01*
X0077537Y0217998D01*
X0077888Y0218008D01*
X0078240Y0218008D01*
X0078591Y0218000D01*
X0519409Y0218000D01*
X0531280Y0206189D02*
X0531280Y0019811D01*
X0531279Y0019811D02*
X0531275Y0019525D01*
X0531264Y0019239D01*
X0531246Y0018953D01*
X0531221Y0018668D01*
X0531189Y0018384D01*
X0531151Y0018100D01*
X0531105Y0017818D01*
X0531053Y0017537D01*
X0530994Y0017257D01*
X0530928Y0016978D01*
X0530855Y0016701D01*
X0530776Y0016426D01*
X0530690Y0016153D01*
X0530598Y0015883D01*
X0530499Y0015614D01*
X0530394Y0015348D01*
X0530282Y0015085D01*
X0530164Y0014824D01*
X0530040Y0014566D01*
X0529909Y0014312D01*
X0529772Y0014060D01*
X0529630Y0013812D01*
X0529481Y0013568D01*
X0529327Y0013327D01*
X0529166Y0013090D01*
X0529000Y0012857D01*
X0528829Y0012628D01*
X0528652Y0012403D01*
X0528469Y0012183D01*
X0528282Y0011967D01*
X0528089Y0011755D01*
X0527891Y0011549D01*
X0527688Y0011347D01*
X0527481Y0011150D01*
X0527268Y0010958D01*
X0527051Y0010771D01*
X0526830Y0010590D01*
X0526604Y0010414D01*
X0526374Y0010244D01*
X0526140Y0010079D01*
X0525903Y0009920D01*
X0525661Y0009767D01*
X0525416Y0009619D01*
X0525167Y0009478D01*
X0524915Y0009342D01*
X0524660Y0009213D01*
X0524401Y0009090D01*
X0524140Y0008973D01*
X0523876Y0008863D01*
X0523610Y0008759D01*
X0523341Y0008661D01*
X0523069Y0008570D01*
X0522796Y0008486D01*
X0522521Y0008408D01*
X0522244Y0008337D01*
X0521965Y0008273D01*
X0521685Y0008215D01*
X0521403Y0008164D01*
X0521120Y0008120D01*
X0520837Y0008083D01*
X0520552Y0008052D01*
X0520267Y0008029D01*
X0519981Y0008012D01*
X0519695Y0008003D01*
X0519409Y0008000D01*
X0075591Y0008000D01*
X0075306Y0008003D01*
X0075020Y0008014D01*
X0074735Y0008031D01*
X0074451Y0008055D01*
X0074167Y0008086D01*
X0073884Y0008124D01*
X0073603Y0008169D01*
X0073322Y0008220D01*
X0073042Y0008278D01*
X0072764Y0008343D01*
X0072488Y0008415D01*
X0072214Y0008493D01*
X0071941Y0008578D01*
X0071671Y0008670D01*
X0071403Y0008768D01*
X0071137Y0008872D01*
X0070874Y0008983D01*
X0070614Y0009100D01*
X0070356Y0009223D01*
X0070102Y0009353D01*
X0069851Y0009489D01*
X0069603Y0009630D01*
X0069359Y0009778D01*
X0069118Y0009931D01*
X0068882Y0010091D01*
X0068649Y0010256D01*
X0068420Y0010426D01*
X0068195Y0010602D01*
X0067975Y0010784D01*
X0067759Y0010970D01*
X0067548Y0011162D01*
X0067341Y0011359D01*
X0067139Y0011561D01*
X0066942Y0011768D01*
X0066750Y0011979D01*
X0066564Y0012195D01*
X0066382Y0012415D01*
X0066206Y0012640D01*
X0066036Y0012869D01*
X0065871Y0013102D01*
X0065711Y0013338D01*
X0065558Y0013579D01*
X0065410Y0013823D01*
X0065269Y0014071D01*
X0065133Y0014322D01*
X0065003Y0014576D01*
X0064880Y0014834D01*
X0064763Y0015094D01*
X0064652Y0015357D01*
X0064548Y0015623D01*
X0064450Y0015891D01*
X0064358Y0016161D01*
X0064273Y0016434D01*
X0064195Y0016708D01*
X0064123Y0016984D01*
X0064058Y0017262D01*
X0064000Y0017542D01*
X0063949Y0017823D01*
X0063904Y0018104D01*
X0063866Y0018387D01*
X0063835Y0018671D01*
X0063811Y0018955D01*
X0063794Y0019240D01*
X0063783Y0019526D01*
X0063780Y0019811D01*
X0267874Y0020500D02*
X0267876Y0020653D01*
X0267882Y0020807D01*
X0267892Y0020960D01*
X0267906Y0021112D01*
X0267924Y0021265D01*
X0267946Y0021416D01*
X0267971Y0021567D01*
X0268001Y0021718D01*
X0268035Y0021868D01*
X0268072Y0022016D01*
X0268113Y0022164D01*
X0268158Y0022310D01*
X0268207Y0022456D01*
X0268260Y0022600D01*
X0268316Y0022742D01*
X0268376Y0022883D01*
X0268440Y0023023D01*
X0268507Y0023161D01*
X0268578Y0023297D01*
X0268653Y0023431D01*
X0268730Y0023563D01*
X0268812Y0023693D01*
X0268896Y0023821D01*
X0268984Y0023947D01*
X0269075Y0024070D01*
X0269169Y0024191D01*
X0269267Y0024309D01*
X0269367Y0024425D01*
X0269471Y0024538D01*
X0269577Y0024649D01*
X0269686Y0024757D01*
X0269798Y0024862D01*
X0269912Y0024963D01*
X0270030Y0025062D01*
X0270149Y0025158D01*
X0270271Y0025251D01*
X0270396Y0025340D01*
X0270523Y0025427D01*
X0270652Y0025509D01*
X0270783Y0025589D01*
X0270916Y0025665D01*
X0271051Y0025738D01*
X0271188Y0025807D01*
X0271327Y0025872D01*
X0271467Y0025934D01*
X0271609Y0025992D01*
X0271752Y0026047D01*
X0271897Y0026098D01*
X0272043Y0026145D01*
X0272190Y0026188D01*
X0272338Y0026227D01*
X0272487Y0026263D01*
X0272637Y0026294D01*
X0272788Y0026322D01*
X0272939Y0026346D01*
X0273092Y0026366D01*
X0273244Y0026382D01*
X0273397Y0026394D01*
X0273550Y0026402D01*
X0273703Y0026406D01*
X0273857Y0026406D01*
X0274010Y0026402D01*
X0274163Y0026394D01*
X0274316Y0026382D01*
X0274468Y0026366D01*
X0274621Y0026346D01*
X0274772Y0026322D01*
X0274923Y0026294D01*
X0275073Y0026263D01*
X0275222Y0026227D01*
X0275370Y0026188D01*
X0275517Y0026145D01*
X0275663Y0026098D01*
X0275808Y0026047D01*
X0275951Y0025992D01*
X0276093Y0025934D01*
X0276233Y0025872D01*
X0276372Y0025807D01*
X0276509Y0025738D01*
X0276644Y0025665D01*
X0276777Y0025589D01*
X0276908Y0025509D01*
X0277037Y0025427D01*
X0277164Y0025340D01*
X0277289Y0025251D01*
X0277411Y0025158D01*
X0277530Y0025062D01*
X0277648Y0024963D01*
X0277762Y0024862D01*
X0277874Y0024757D01*
X0277983Y0024649D01*
X0278089Y0024538D01*
X0278193Y0024425D01*
X0278293Y0024309D01*
X0278391Y0024191D01*
X0278485Y0024070D01*
X0278576Y0023947D01*
X0278664Y0023821D01*
X0278748Y0023693D01*
X0278830Y0023563D01*
X0278907Y0023431D01*
X0278982Y0023297D01*
X0279053Y0023161D01*
X0279120Y0023023D01*
X0279184Y0022883D01*
X0279244Y0022742D01*
X0279300Y0022600D01*
X0279353Y0022456D01*
X0279402Y0022310D01*
X0279447Y0022164D01*
X0279488Y0022016D01*
X0279525Y0021868D01*
X0279559Y0021718D01*
X0279589Y0021567D01*
X0279614Y0021416D01*
X0279636Y0021265D01*
X0279654Y0021112D01*
X0279668Y0020960D01*
X0279678Y0020807D01*
X0279684Y0020653D01*
X0279686Y0020500D01*
X0279684Y0020347D01*
X0279678Y0020193D01*
X0279668Y0020040D01*
X0279654Y0019888D01*
X0279636Y0019735D01*
X0279614Y0019584D01*
X0279589Y0019433D01*
X0279559Y0019282D01*
X0279525Y0019132D01*
X0279488Y0018984D01*
X0279447Y0018836D01*
X0279402Y0018690D01*
X0279353Y0018544D01*
X0279300Y0018400D01*
X0279244Y0018258D01*
X0279184Y0018117D01*
X0279120Y0017977D01*
X0279053Y0017839D01*
X0278982Y0017703D01*
X0278907Y0017569D01*
X0278830Y0017437D01*
X0278748Y0017307D01*
X0278664Y0017179D01*
X0278576Y0017053D01*
X0278485Y0016930D01*
X0278391Y0016809D01*
X0278293Y0016691D01*
X0278193Y0016575D01*
X0278089Y0016462D01*
X0277983Y0016351D01*
X0277874Y0016243D01*
X0277762Y0016138D01*
X0277648Y0016037D01*
X0277530Y0015938D01*
X0277411Y0015842D01*
X0277289Y0015749D01*
X0277164Y0015660D01*
X0277037Y0015573D01*
X0276908Y0015491D01*
X0276777Y0015411D01*
X0276644Y0015335D01*
X0276509Y0015262D01*
X0276372Y0015193D01*
X0276233Y0015128D01*
X0276093Y0015066D01*
X0275951Y0015008D01*
X0275808Y0014953D01*
X0275663Y0014902D01*
X0275517Y0014855D01*
X0275370Y0014812D01*
X0275222Y0014773D01*
X0275073Y0014737D01*
X0274923Y0014706D01*
X0274772Y0014678D01*
X0274621Y0014654D01*
X0274468Y0014634D01*
X0274316Y0014618D01*
X0274163Y0014606D01*
X0274010Y0014598D01*
X0273857Y0014594D01*
X0273703Y0014594D01*
X0273550Y0014598D01*
X0273397Y0014606D01*
X0273244Y0014618D01*
X0273092Y0014634D01*
X0272939Y0014654D01*
X0272788Y0014678D01*
X0272637Y0014706D01*
X0272487Y0014737D01*
X0272338Y0014773D01*
X0272190Y0014812D01*
X0272043Y0014855D01*
X0271897Y0014902D01*
X0271752Y0014953D01*
X0271609Y0015008D01*
X0271467Y0015066D01*
X0271327Y0015128D01*
X0271188Y0015193D01*
X0271051Y0015262D01*
X0270916Y0015335D01*
X0270783Y0015411D01*
X0270652Y0015491D01*
X0270523Y0015573D01*
X0270396Y0015660D01*
X0270271Y0015749D01*
X0270149Y0015842D01*
X0270030Y0015938D01*
X0269912Y0016037D01*
X0269798Y0016138D01*
X0269686Y0016243D01*
X0269577Y0016351D01*
X0269471Y0016462D01*
X0269367Y0016575D01*
X0269267Y0016691D01*
X0269169Y0016809D01*
X0269075Y0016930D01*
X0268984Y0017053D01*
X0268896Y0017179D01*
X0268812Y0017307D01*
X0268730Y0017437D01*
X0268653Y0017569D01*
X0268578Y0017703D01*
X0268507Y0017839D01*
X0268440Y0017977D01*
X0268376Y0018117D01*
X0268316Y0018258D01*
X0268260Y0018400D01*
X0268207Y0018544D01*
X0268158Y0018690D01*
X0268113Y0018836D01*
X0268072Y0018984D01*
X0268035Y0019132D01*
X0268001Y0019282D01*
X0267971Y0019433D01*
X0267946Y0019584D01*
X0267924Y0019735D01*
X0267906Y0019888D01*
X0267892Y0020040D01*
X0267882Y0020193D01*
X0267876Y0020347D01*
X0267874Y0020500D01*
X0512874Y0020500D02*
X0512876Y0020653D01*
X0512882Y0020807D01*
X0512892Y0020960D01*
X0512906Y0021112D01*
X0512924Y0021265D01*
X0512946Y0021416D01*
X0512971Y0021567D01*
X0513001Y0021718D01*
X0513035Y0021868D01*
X0513072Y0022016D01*
X0513113Y0022164D01*
X0513158Y0022310D01*
X0513207Y0022456D01*
X0513260Y0022600D01*
X0513316Y0022742D01*
X0513376Y0022883D01*
X0513440Y0023023D01*
X0513507Y0023161D01*
X0513578Y0023297D01*
X0513653Y0023431D01*
X0513730Y0023563D01*
X0513812Y0023693D01*
X0513896Y0023821D01*
X0513984Y0023947D01*
X0514075Y0024070D01*
X0514169Y0024191D01*
X0514267Y0024309D01*
X0514367Y0024425D01*
X0514471Y0024538D01*
X0514577Y0024649D01*
X0514686Y0024757D01*
X0514798Y0024862D01*
X0514912Y0024963D01*
X0515030Y0025062D01*
X0515149Y0025158D01*
X0515271Y0025251D01*
X0515396Y0025340D01*
X0515523Y0025427D01*
X0515652Y0025509D01*
X0515783Y0025589D01*
X0515916Y0025665D01*
X0516051Y0025738D01*
X0516188Y0025807D01*
X0516327Y0025872D01*
X0516467Y0025934D01*
X0516609Y0025992D01*
X0516752Y0026047D01*
X0516897Y0026098D01*
X0517043Y0026145D01*
X0517190Y0026188D01*
X0517338Y0026227D01*
X0517487Y0026263D01*
X0517637Y0026294D01*
X0517788Y0026322D01*
X0517939Y0026346D01*
X0518092Y0026366D01*
X0518244Y0026382D01*
X0518397Y0026394D01*
X0518550Y0026402D01*
X0518703Y0026406D01*
X0518857Y0026406D01*
X0519010Y0026402D01*
X0519163Y0026394D01*
X0519316Y0026382D01*
X0519468Y0026366D01*
X0519621Y0026346D01*
X0519772Y0026322D01*
X0519923Y0026294D01*
X0520073Y0026263D01*
X0520222Y0026227D01*
X0520370Y0026188D01*
X0520517Y0026145D01*
X0520663Y0026098D01*
X0520808Y0026047D01*
X0520951Y0025992D01*
X0521093Y0025934D01*
X0521233Y0025872D01*
X0521372Y0025807D01*
X0521509Y0025738D01*
X0521644Y0025665D01*
X0521777Y0025589D01*
X0521908Y0025509D01*
X0522037Y0025427D01*
X0522164Y0025340D01*
X0522289Y0025251D01*
X0522411Y0025158D01*
X0522530Y0025062D01*
X0522648Y0024963D01*
X0522762Y0024862D01*
X0522874Y0024757D01*
X0522983Y0024649D01*
X0523089Y0024538D01*
X0523193Y0024425D01*
X0523293Y0024309D01*
X0523391Y0024191D01*
X0523485Y0024070D01*
X0523576Y0023947D01*
X0523664Y0023821D01*
X0523748Y0023693D01*
X0523830Y0023563D01*
X0523907Y0023431D01*
X0523982Y0023297D01*
X0524053Y0023161D01*
X0524120Y0023023D01*
X0524184Y0022883D01*
X0524244Y0022742D01*
X0524300Y0022600D01*
X0524353Y0022456D01*
X0524402Y0022310D01*
X0524447Y0022164D01*
X0524488Y0022016D01*
X0524525Y0021868D01*
X0524559Y0021718D01*
X0524589Y0021567D01*
X0524614Y0021416D01*
X0524636Y0021265D01*
X0524654Y0021112D01*
X0524668Y0020960D01*
X0524678Y0020807D01*
X0524684Y0020653D01*
X0524686Y0020500D01*
X0524684Y0020347D01*
X0524678Y0020193D01*
X0524668Y0020040D01*
X0524654Y0019888D01*
X0524636Y0019735D01*
X0524614Y0019584D01*
X0524589Y0019433D01*
X0524559Y0019282D01*
X0524525Y0019132D01*
X0524488Y0018984D01*
X0524447Y0018836D01*
X0524402Y0018690D01*
X0524353Y0018544D01*
X0524300Y0018400D01*
X0524244Y0018258D01*
X0524184Y0018117D01*
X0524120Y0017977D01*
X0524053Y0017839D01*
X0523982Y0017703D01*
X0523907Y0017569D01*
X0523830Y0017437D01*
X0523748Y0017307D01*
X0523664Y0017179D01*
X0523576Y0017053D01*
X0523485Y0016930D01*
X0523391Y0016809D01*
X0523293Y0016691D01*
X0523193Y0016575D01*
X0523089Y0016462D01*
X0522983Y0016351D01*
X0522874Y0016243D01*
X0522762Y0016138D01*
X0522648Y0016037D01*
X0522530Y0015938D01*
X0522411Y0015842D01*
X0522289Y0015749D01*
X0522164Y0015660D01*
X0522037Y0015573D01*
X0521908Y0015491D01*
X0521777Y0015411D01*
X0521644Y0015335D01*
X0521509Y0015262D01*
X0521372Y0015193D01*
X0521233Y0015128D01*
X0521093Y0015066D01*
X0520951Y0015008D01*
X0520808Y0014953D01*
X0520663Y0014902D01*
X0520517Y0014855D01*
X0520370Y0014812D01*
X0520222Y0014773D01*
X0520073Y0014737D01*
X0519923Y0014706D01*
X0519772Y0014678D01*
X0519621Y0014654D01*
X0519468Y0014634D01*
X0519316Y0014618D01*
X0519163Y0014606D01*
X0519010Y0014598D01*
X0518857Y0014594D01*
X0518703Y0014594D01*
X0518550Y0014598D01*
X0518397Y0014606D01*
X0518244Y0014618D01*
X0518092Y0014634D01*
X0517939Y0014654D01*
X0517788Y0014678D01*
X0517637Y0014706D01*
X0517487Y0014737D01*
X0517338Y0014773D01*
X0517190Y0014812D01*
X0517043Y0014855D01*
X0516897Y0014902D01*
X0516752Y0014953D01*
X0516609Y0015008D01*
X0516467Y0015066D01*
X0516327Y0015128D01*
X0516188Y0015193D01*
X0516051Y0015262D01*
X0515916Y0015335D01*
X0515783Y0015411D01*
X0515652Y0015491D01*
X0515523Y0015573D01*
X0515396Y0015660D01*
X0515271Y0015749D01*
X0515149Y0015842D01*
X0515030Y0015938D01*
X0514912Y0016037D01*
X0514798Y0016138D01*
X0514686Y0016243D01*
X0514577Y0016351D01*
X0514471Y0016462D01*
X0514367Y0016575D01*
X0514267Y0016691D01*
X0514169Y0016809D01*
X0514075Y0016930D01*
X0513984Y0017053D01*
X0513896Y0017179D01*
X0513812Y0017307D01*
X0513730Y0017437D01*
X0513653Y0017569D01*
X0513578Y0017703D01*
X0513507Y0017839D01*
X0513440Y0017977D01*
X0513376Y0018117D01*
X0513316Y0018258D01*
X0513260Y0018400D01*
X0513207Y0018544D01*
X0513158Y0018690D01*
X0513113Y0018836D01*
X0513072Y0018984D01*
X0513035Y0019132D01*
X0513001Y0019282D01*
X0512971Y0019433D01*
X0512946Y0019584D01*
X0512924Y0019735D01*
X0512906Y0019888D01*
X0512892Y0020040D01*
X0512882Y0020193D01*
X0512876Y0020347D01*
X0512874Y0020500D01*
X0512874Y0205500D02*
X0512876Y0205653D01*
X0512882Y0205807D01*
X0512892Y0205960D01*
X0512906Y0206112D01*
X0512924Y0206265D01*
X0512946Y0206416D01*
X0512971Y0206567D01*
X0513001Y0206718D01*
X0513035Y0206868D01*
X0513072Y0207016D01*
X0513113Y0207164D01*
X0513158Y0207310D01*
X0513207Y0207456D01*
X0513260Y0207600D01*
X0513316Y0207742D01*
X0513376Y0207883D01*
X0513440Y0208023D01*
X0513507Y0208161D01*
X0513578Y0208297D01*
X0513653Y0208431D01*
X0513730Y0208563D01*
X0513812Y0208693D01*
X0513896Y0208821D01*
X0513984Y0208947D01*
X0514075Y0209070D01*
X0514169Y0209191D01*
X0514267Y0209309D01*
X0514367Y0209425D01*
X0514471Y0209538D01*
X0514577Y0209649D01*
X0514686Y0209757D01*
X0514798Y0209862D01*
X0514912Y0209963D01*
X0515030Y0210062D01*
X0515149Y0210158D01*
X0515271Y0210251D01*
X0515396Y0210340D01*
X0515523Y0210427D01*
X0515652Y0210509D01*
X0515783Y0210589D01*
X0515916Y0210665D01*
X0516051Y0210738D01*
X0516188Y0210807D01*
X0516327Y0210872D01*
X0516467Y0210934D01*
X0516609Y0210992D01*
X0516752Y0211047D01*
X0516897Y0211098D01*
X0517043Y0211145D01*
X0517190Y0211188D01*
X0517338Y0211227D01*
X0517487Y0211263D01*
X0517637Y0211294D01*
X0517788Y0211322D01*
X0517939Y0211346D01*
X0518092Y0211366D01*
X0518244Y0211382D01*
X0518397Y0211394D01*
X0518550Y0211402D01*
X0518703Y0211406D01*
X0518857Y0211406D01*
X0519010Y0211402D01*
X0519163Y0211394D01*
X0519316Y0211382D01*
X0519468Y0211366D01*
X0519621Y0211346D01*
X0519772Y0211322D01*
X0519923Y0211294D01*
X0520073Y0211263D01*
X0520222Y0211227D01*
X0520370Y0211188D01*
X0520517Y0211145D01*
X0520663Y0211098D01*
X0520808Y0211047D01*
X0520951Y0210992D01*
X0521093Y0210934D01*
X0521233Y0210872D01*
X0521372Y0210807D01*
X0521509Y0210738D01*
X0521644Y0210665D01*
X0521777Y0210589D01*
X0521908Y0210509D01*
X0522037Y0210427D01*
X0522164Y0210340D01*
X0522289Y0210251D01*
X0522411Y0210158D01*
X0522530Y0210062D01*
X0522648Y0209963D01*
X0522762Y0209862D01*
X0522874Y0209757D01*
X0522983Y0209649D01*
X0523089Y0209538D01*
X0523193Y0209425D01*
X0523293Y0209309D01*
X0523391Y0209191D01*
X0523485Y0209070D01*
X0523576Y0208947D01*
X0523664Y0208821D01*
X0523748Y0208693D01*
X0523830Y0208563D01*
X0523907Y0208431D01*
X0523982Y0208297D01*
X0524053Y0208161D01*
X0524120Y0208023D01*
X0524184Y0207883D01*
X0524244Y0207742D01*
X0524300Y0207600D01*
X0524353Y0207456D01*
X0524402Y0207310D01*
X0524447Y0207164D01*
X0524488Y0207016D01*
X0524525Y0206868D01*
X0524559Y0206718D01*
X0524589Y0206567D01*
X0524614Y0206416D01*
X0524636Y0206265D01*
X0524654Y0206112D01*
X0524668Y0205960D01*
X0524678Y0205807D01*
X0524684Y0205653D01*
X0524686Y0205500D01*
X0524684Y0205347D01*
X0524678Y0205193D01*
X0524668Y0205040D01*
X0524654Y0204888D01*
X0524636Y0204735D01*
X0524614Y0204584D01*
X0524589Y0204433D01*
X0524559Y0204282D01*
X0524525Y0204132D01*
X0524488Y0203984D01*
X0524447Y0203836D01*
X0524402Y0203690D01*
X0524353Y0203544D01*
X0524300Y0203400D01*
X0524244Y0203258D01*
X0524184Y0203117D01*
X0524120Y0202977D01*
X0524053Y0202839D01*
X0523982Y0202703D01*
X0523907Y0202569D01*
X0523830Y0202437D01*
X0523748Y0202307D01*
X0523664Y0202179D01*
X0523576Y0202053D01*
X0523485Y0201930D01*
X0523391Y0201809D01*
X0523293Y0201691D01*
X0523193Y0201575D01*
X0523089Y0201462D01*
X0522983Y0201351D01*
X0522874Y0201243D01*
X0522762Y0201138D01*
X0522648Y0201037D01*
X0522530Y0200938D01*
X0522411Y0200842D01*
X0522289Y0200749D01*
X0522164Y0200660D01*
X0522037Y0200573D01*
X0521908Y0200491D01*
X0521777Y0200411D01*
X0521644Y0200335D01*
X0521509Y0200262D01*
X0521372Y0200193D01*
X0521233Y0200128D01*
X0521093Y0200066D01*
X0520951Y0200008D01*
X0520808Y0199953D01*
X0520663Y0199902D01*
X0520517Y0199855D01*
X0520370Y0199812D01*
X0520222Y0199773D01*
X0520073Y0199737D01*
X0519923Y0199706D01*
X0519772Y0199678D01*
X0519621Y0199654D01*
X0519468Y0199634D01*
X0519316Y0199618D01*
X0519163Y0199606D01*
X0519010Y0199598D01*
X0518857Y0199594D01*
X0518703Y0199594D01*
X0518550Y0199598D01*
X0518397Y0199606D01*
X0518244Y0199618D01*
X0518092Y0199634D01*
X0517939Y0199654D01*
X0517788Y0199678D01*
X0517637Y0199706D01*
X0517487Y0199737D01*
X0517338Y0199773D01*
X0517190Y0199812D01*
X0517043Y0199855D01*
X0516897Y0199902D01*
X0516752Y0199953D01*
X0516609Y0200008D01*
X0516467Y0200066D01*
X0516327Y0200128D01*
X0516188Y0200193D01*
X0516051Y0200262D01*
X0515916Y0200335D01*
X0515783Y0200411D01*
X0515652Y0200491D01*
X0515523Y0200573D01*
X0515396Y0200660D01*
X0515271Y0200749D01*
X0515149Y0200842D01*
X0515030Y0200938D01*
X0514912Y0201037D01*
X0514798Y0201138D01*
X0514686Y0201243D01*
X0514577Y0201351D01*
X0514471Y0201462D01*
X0514367Y0201575D01*
X0514267Y0201691D01*
X0514169Y0201809D01*
X0514075Y0201930D01*
X0513984Y0202053D01*
X0513896Y0202179D01*
X0513812Y0202307D01*
X0513730Y0202437D01*
X0513653Y0202569D01*
X0513578Y0202703D01*
X0513507Y0202839D01*
X0513440Y0202977D01*
X0513376Y0203117D01*
X0513316Y0203258D01*
X0513260Y0203400D01*
X0513207Y0203544D01*
X0513158Y0203690D01*
X0513113Y0203836D01*
X0513072Y0203984D01*
X0513035Y0204132D01*
X0513001Y0204282D01*
X0512971Y0204433D01*
X0512946Y0204584D01*
X0512924Y0204735D01*
X0512906Y0204888D01*
X0512892Y0205040D01*
X0512882Y0205193D01*
X0512876Y0205347D01*
X0512874Y0205500D01*
X0519409Y0218000D02*
X0519695Y0217997D01*
X0519981Y0217988D01*
X0520267Y0217971D01*
X0520552Y0217948D01*
X0520837Y0217917D01*
X0521120Y0217880D01*
X0521403Y0217836D01*
X0521685Y0217785D01*
X0521965Y0217727D01*
X0522244Y0217663D01*
X0522521Y0217592D01*
X0522796Y0217514D01*
X0523069Y0217430D01*
X0523341Y0217339D01*
X0523610Y0217241D01*
X0523876Y0217137D01*
X0524140Y0217027D01*
X0524401Y0216910D01*
X0524660Y0216787D01*
X0524915Y0216658D01*
X0525167Y0216522D01*
X0525416Y0216381D01*
X0525661Y0216233D01*
X0525903Y0216080D01*
X0526140Y0215921D01*
X0526374Y0215756D01*
X0526604Y0215586D01*
X0526830Y0215410D01*
X0527051Y0215229D01*
X0527268Y0215042D01*
X0527481Y0214850D01*
X0527688Y0214653D01*
X0527891Y0214451D01*
X0528089Y0214245D01*
X0528282Y0214033D01*
X0528469Y0213817D01*
X0528652Y0213597D01*
X0528829Y0213372D01*
X0529000Y0213143D01*
X0529166Y0212910D01*
X0529327Y0212673D01*
X0529481Y0212432D01*
X0529630Y0212188D01*
X0529772Y0211940D01*
X0529909Y0211688D01*
X0530040Y0211434D01*
X0530164Y0211176D01*
X0530282Y0210915D01*
X0530394Y0210652D01*
X0530499Y0210386D01*
X0530598Y0210117D01*
X0530690Y0209847D01*
X0530776Y0209574D01*
X0530855Y0209299D01*
X0530928Y0209022D01*
X0530994Y0208743D01*
X0531053Y0208463D01*
X0531105Y0208182D01*
X0531151Y0207900D01*
X0531189Y0207616D01*
X0531221Y0207332D01*
X0531246Y0207047D01*
X0531264Y0206761D01*
X0531275Y0206475D01*
X0531279Y0206189D01*
X0267874Y0205500D02*
X0267876Y0205653D01*
X0267882Y0205807D01*
X0267892Y0205960D01*
X0267906Y0206112D01*
X0267924Y0206265D01*
X0267946Y0206416D01*
X0267971Y0206567D01*
X0268001Y0206718D01*
X0268035Y0206868D01*
X0268072Y0207016D01*
X0268113Y0207164D01*
X0268158Y0207310D01*
X0268207Y0207456D01*
X0268260Y0207600D01*
X0268316Y0207742D01*
X0268376Y0207883D01*
X0268440Y0208023D01*
X0268507Y0208161D01*
X0268578Y0208297D01*
X0268653Y0208431D01*
X0268730Y0208563D01*
X0268812Y0208693D01*
X0268896Y0208821D01*
X0268984Y0208947D01*
X0269075Y0209070D01*
X0269169Y0209191D01*
X0269267Y0209309D01*
X0269367Y0209425D01*
X0269471Y0209538D01*
X0269577Y0209649D01*
X0269686Y0209757D01*
X0269798Y0209862D01*
X0269912Y0209963D01*
X0270030Y0210062D01*
X0270149Y0210158D01*
X0270271Y0210251D01*
X0270396Y0210340D01*
X0270523Y0210427D01*
X0270652Y0210509D01*
X0270783Y0210589D01*
X0270916Y0210665D01*
X0271051Y0210738D01*
X0271188Y0210807D01*
X0271327Y0210872D01*
X0271467Y0210934D01*
X0271609Y0210992D01*
X0271752Y0211047D01*
X0271897Y0211098D01*
X0272043Y0211145D01*
X0272190Y0211188D01*
X0272338Y0211227D01*
X0272487Y0211263D01*
X0272637Y0211294D01*
X0272788Y0211322D01*
X0272939Y0211346D01*
X0273092Y0211366D01*
X0273244Y0211382D01*
X0273397Y0211394D01*
X0273550Y0211402D01*
X0273703Y0211406D01*
X0273857Y0211406D01*
X0274010Y0211402D01*
X0274163Y0211394D01*
X0274316Y0211382D01*
X0274468Y0211366D01*
X0274621Y0211346D01*
X0274772Y0211322D01*
X0274923Y0211294D01*
X0275073Y0211263D01*
X0275222Y0211227D01*
X0275370Y0211188D01*
X0275517Y0211145D01*
X0275663Y0211098D01*
X0275808Y0211047D01*
X0275951Y0210992D01*
X0276093Y0210934D01*
X0276233Y0210872D01*
X0276372Y0210807D01*
X0276509Y0210738D01*
X0276644Y0210665D01*
X0276777Y0210589D01*
X0276908Y0210509D01*
X0277037Y0210427D01*
X0277164Y0210340D01*
X0277289Y0210251D01*
X0277411Y0210158D01*
X0277530Y0210062D01*
X0277648Y0209963D01*
X0277762Y0209862D01*
X0277874Y0209757D01*
X0277983Y0209649D01*
X0278089Y0209538D01*
X0278193Y0209425D01*
X0278293Y0209309D01*
X0278391Y0209191D01*
X0278485Y0209070D01*
X0278576Y0208947D01*
X0278664Y0208821D01*
X0278748Y0208693D01*
X0278830Y0208563D01*
X0278907Y0208431D01*
X0278982Y0208297D01*
X0279053Y0208161D01*
X0279120Y0208023D01*
X0279184Y0207883D01*
X0279244Y0207742D01*
X0279300Y0207600D01*
X0279353Y0207456D01*
X0279402Y0207310D01*
X0279447Y0207164D01*
X0279488Y0207016D01*
X0279525Y0206868D01*
X0279559Y0206718D01*
X0279589Y0206567D01*
X0279614Y0206416D01*
X0279636Y0206265D01*
X0279654Y0206112D01*
X0279668Y0205960D01*
X0279678Y0205807D01*
X0279684Y0205653D01*
X0279686Y0205500D01*
X0279684Y0205347D01*
X0279678Y0205193D01*
X0279668Y0205040D01*
X0279654Y0204888D01*
X0279636Y0204735D01*
X0279614Y0204584D01*
X0279589Y0204433D01*
X0279559Y0204282D01*
X0279525Y0204132D01*
X0279488Y0203984D01*
X0279447Y0203836D01*
X0279402Y0203690D01*
X0279353Y0203544D01*
X0279300Y0203400D01*
X0279244Y0203258D01*
X0279184Y0203117D01*
X0279120Y0202977D01*
X0279053Y0202839D01*
X0278982Y0202703D01*
X0278907Y0202569D01*
X0278830Y0202437D01*
X0278748Y0202307D01*
X0278664Y0202179D01*
X0278576Y0202053D01*
X0278485Y0201930D01*
X0278391Y0201809D01*
X0278293Y0201691D01*
X0278193Y0201575D01*
X0278089Y0201462D01*
X0277983Y0201351D01*
X0277874Y0201243D01*
X0277762Y0201138D01*
X0277648Y0201037D01*
X0277530Y0200938D01*
X0277411Y0200842D01*
X0277289Y0200749D01*
X0277164Y0200660D01*
X0277037Y0200573D01*
X0276908Y0200491D01*
X0276777Y0200411D01*
X0276644Y0200335D01*
X0276509Y0200262D01*
X0276372Y0200193D01*
X0276233Y0200128D01*
X0276093Y0200066D01*
X0275951Y0200008D01*
X0275808Y0199953D01*
X0275663Y0199902D01*
X0275517Y0199855D01*
X0275370Y0199812D01*
X0275222Y0199773D01*
X0275073Y0199737D01*
X0274923Y0199706D01*
X0274772Y0199678D01*
X0274621Y0199654D01*
X0274468Y0199634D01*
X0274316Y0199618D01*
X0274163Y0199606D01*
X0274010Y0199598D01*
X0273857Y0199594D01*
X0273703Y0199594D01*
X0273550Y0199598D01*
X0273397Y0199606D01*
X0273244Y0199618D01*
X0273092Y0199634D01*
X0272939Y0199654D01*
X0272788Y0199678D01*
X0272637Y0199706D01*
X0272487Y0199737D01*
X0272338Y0199773D01*
X0272190Y0199812D01*
X0272043Y0199855D01*
X0271897Y0199902D01*
X0271752Y0199953D01*
X0271609Y0200008D01*
X0271467Y0200066D01*
X0271327Y0200128D01*
X0271188Y0200193D01*
X0271051Y0200262D01*
X0270916Y0200335D01*
X0270783Y0200411D01*
X0270652Y0200491D01*
X0270523Y0200573D01*
X0270396Y0200660D01*
X0270271Y0200749D01*
X0270149Y0200842D01*
X0270030Y0200938D01*
X0269912Y0201037D01*
X0269798Y0201138D01*
X0269686Y0201243D01*
X0269577Y0201351D01*
X0269471Y0201462D01*
X0269367Y0201575D01*
X0269267Y0201691D01*
X0269169Y0201809D01*
X0269075Y0201930D01*
X0268984Y0202053D01*
X0268896Y0202179D01*
X0268812Y0202307D01*
X0268730Y0202437D01*
X0268653Y0202569D01*
X0268578Y0202703D01*
X0268507Y0202839D01*
X0268440Y0202977D01*
X0268376Y0203117D01*
X0268316Y0203258D01*
X0268260Y0203400D01*
X0268207Y0203544D01*
X0268158Y0203690D01*
X0268113Y0203836D01*
X0268072Y0203984D01*
X0268035Y0204132D01*
X0268001Y0204282D01*
X0267971Y0204433D01*
X0267946Y0204584D01*
X0267924Y0204735D01*
X0267906Y0204888D01*
X0267892Y0205040D01*
X0267882Y0205193D01*
X0267876Y0205347D01*
X0267874Y0205500D01*
M02*
