%
M48
M72
T01C0.01181
T02C0.01575
T03C0.01969
T04C0.03600
T05C0.03937
T06C0.04000
T07C0.11811
%
T01
X243780Y182000
X214780Y126000
X216780Y77000
X142780Y131000
X137780Y151000
X130780Y117000
X194780Y121000
X98780Y109000
X160780Y162000
X161780Y129000
X155780Y108000
X205780Y167000
X177780Y97000
X154780Y93000
X195780Y113000
X196780Y101000
X129780Y128000
X141780Y82000
X129780Y112000
T02
X278720Y113500
T03
X294220Y118500
X222720Y143000
X267720Y158500
X274220Y189000
X270720Y150500
X270720Y113500
X262720Y113500
X255720Y114000
X249220Y114000
X245220Y159000
X227220Y88500
X267220Y181000
X267720Y192500
X238780Y134000
X238780Y93000
X238780Y114000
X510220Y118000
X506220Y110000
X286220Y108500
X290220Y115500
X502220Y118000
X498220Y110000
T04
X80780Y32000
X90780Y32000
X100780Y32000
T05
X215000Y208000
X205000Y18000
X225000Y208000
X235000Y208000
X245000Y208000
X255000Y208000
X205000Y208000
X195000Y208000
X185000Y208000
X169000Y208000
X159000Y208000
X149000Y208000
X139000Y208000
X129000Y208000
X119000Y208000
X109000Y208000
X99000Y208000
X215000Y18000
X225000Y18000
X235000Y18000
X245000Y18000
X255000Y18000
X185000Y18000
X175000Y18000
X165000Y18000
X155000Y18000
X145000Y18000
X135000Y18000
X89000Y208000
X79000Y208000
X125000Y18000
X115000Y18000
X184980Y32000
X174980Y32000
X164980Y32000
X154980Y32000
X144980Y32000
X134980Y32000
X124980Y32000
X114980Y32000
X255080Y32000
X245080Y32000
X235080Y32000
X225080Y32000
X215080Y32000
X205080Y32000
X79080Y193000
X89080Y193000
X99080Y193000
X109080Y193000
X119080Y193000
X129080Y193000
X139080Y193000
X149080Y193000
X159080Y193000
X169080Y193000
X185080Y193000
X195080Y193000
X205080Y193000
X215080Y193000
X225080Y193000
X235080Y193000
X245080Y193000
X255080Y193000
T06
X185280Y179500
X195280Y179500
X205280Y179500
X215280Y179500
X225280Y179500
X235280Y179500
X265780Y61000
X265780Y51000
X255780Y61000
X255780Y51000
X245780Y61000
X245780Y51000
X235780Y61000
X235780Y51000
X225780Y61000
X225780Y51000
X215780Y61000
X215780Y51000
X205780Y61000
X205780Y51000
X195780Y61000
X195780Y51000
X185780Y61000
X185780Y51000
X175780Y61000
X175780Y51000
X165780Y61000
X165780Y51000
X155780Y61000
X155780Y51000
X145780Y61000
X145780Y51000
X135780Y61000
X135780Y51000
X125780Y61000
X125780Y51000
X115780Y61000
X115780Y51000
X105780Y61000
X105780Y51000
X95780Y61000
X95780Y51000
X85780Y61000
X85780Y51000
X75780Y61000
X75780Y51000
T07
X273780Y205500
X518780Y205500
X518780Y20500
X273780Y20500
M30
