G75*
%MOIN*%
%OFA0B0*%
%FSLAX25Y25*%
%IPPOS*%
%LPD*%
%AMOC8*
5,1,8,0,0,1.08239X$1,22.5*
%
%ADD10C,0.00000*%
%ADD11OC8,0.06600*%
%ADD12C,0.07000*%
%ADD13OC8,0.07000*%
%ADD14C,0.05600*%
%ADD15OC8,0.06000*%
%ADD16C,0.03181*%
%ADD17C,0.01000*%
%ADD18C,0.01600*%
%ADD19C,0.03969*%
%ADD20C,0.03575*%
%ADD21OC8,0.03969*%
D10*
X0063780Y0019811D02*
X0063780Y0204189D01*
X0063796Y0204540D01*
X0063822Y0204891D01*
X0063855Y0205240D01*
X0063898Y0205589D01*
X0063949Y0205937D01*
X0064008Y0206283D01*
X0064076Y0206628D01*
X0064152Y0206971D01*
X0064237Y0207312D01*
X0064330Y0207651D01*
X0064432Y0207988D01*
X0064541Y0208322D01*
X0064659Y0208653D01*
X0064785Y0208981D01*
X0064919Y0209306D01*
X0065060Y0209628D01*
X0065210Y0209946D01*
X0065368Y0210260D01*
X0065533Y0210570D01*
X0065705Y0210876D01*
X0065885Y0211178D01*
X0066073Y0211475D01*
X0066268Y0211768D01*
X0066469Y0212056D01*
X0066678Y0212338D01*
X0066894Y0212616D01*
X0067116Y0212888D01*
X0067345Y0213154D01*
X0067581Y0213415D01*
X0067823Y0213670D01*
X0068071Y0213919D01*
X0068325Y0214162D01*
X0068585Y0214399D01*
X0068851Y0214629D01*
X0069122Y0214852D01*
X0069399Y0215069D01*
X0069680Y0215279D01*
X0069967Y0215482D01*
X0070259Y0215678D01*
X0070556Y0215866D01*
X0070857Y0216047D01*
X0071162Y0216221D01*
X0071472Y0216388D01*
X0071786Y0216546D01*
X0072103Y0216697D01*
X0072424Y0216840D01*
X0072749Y0216975D01*
X0073076Y0217102D01*
X0073407Y0217221D01*
X0073740Y0217332D01*
X0074077Y0217435D01*
X0074415Y0217529D01*
X0074756Y0217615D01*
X0075099Y0217693D01*
X0075443Y0217762D01*
X0075789Y0217823D01*
X0076137Y0217875D01*
X0076486Y0217919D01*
X0076835Y0217954D01*
X0077186Y0217980D01*
X0077537Y0217998D01*
X0077888Y0218008D01*
X0078240Y0218008D01*
X0078591Y0218000D01*
X0519409Y0218000D01*
X0531280Y0206189D02*
X0531280Y0019811D01*
X0531279Y0019811D02*
X0531275Y0019525D01*
X0531264Y0019239D01*
X0531246Y0018953D01*
X0531221Y0018668D01*
X0531189Y0018384D01*
X0531151Y0018100D01*
X0531105Y0017818D01*
X0531053Y0017537D01*
X0530994Y0017257D01*
X0530928Y0016978D01*
X0530855Y0016701D01*
X0530776Y0016426D01*
X0530690Y0016153D01*
X0530598Y0015883D01*
X0530499Y0015614D01*
X0530394Y0015348D01*
X0530282Y0015085D01*
X0530164Y0014824D01*
X0530040Y0014566D01*
X0529909Y0014312D01*
X0529772Y0014060D01*
X0529630Y0013812D01*
X0529481Y0013568D01*
X0529327Y0013327D01*
X0529166Y0013090D01*
X0529000Y0012857D01*
X0528829Y0012628D01*
X0528652Y0012403D01*
X0528469Y0012183D01*
X0528282Y0011967D01*
X0528089Y0011755D01*
X0527891Y0011549D01*
X0527688Y0011347D01*
X0527481Y0011150D01*
X0527268Y0010958D01*
X0527051Y0010771D01*
X0526830Y0010590D01*
X0526604Y0010414D01*
X0526374Y0010244D01*
X0526140Y0010079D01*
X0525903Y0009920D01*
X0525661Y0009767D01*
X0525416Y0009619D01*
X0525167Y0009478D01*
X0524915Y0009342D01*
X0524660Y0009213D01*
X0524401Y0009090D01*
X0524140Y0008973D01*
X0523876Y0008863D01*
X0523610Y0008759D01*
X0523341Y0008661D01*
X0523069Y0008570D01*
X0522796Y0008486D01*
X0522521Y0008408D01*
X0522244Y0008337D01*
X0521965Y0008273D01*
X0521685Y0008215D01*
X0521403Y0008164D01*
X0521120Y0008120D01*
X0520837Y0008083D01*
X0520552Y0008052D01*
X0520267Y0008029D01*
X0519981Y0008012D01*
X0519695Y0008003D01*
X0519409Y0008000D01*
X0075591Y0008000D01*
X0075306Y0008003D01*
X0075020Y0008014D01*
X0074735Y0008031D01*
X0074451Y0008055D01*
X0074167Y0008086D01*
X0073884Y0008124D01*
X0073603Y0008169D01*
X0073322Y0008220D01*
X0073042Y0008278D01*
X0072764Y0008343D01*
X0072488Y0008415D01*
X0072214Y0008493D01*
X0071941Y0008578D01*
X0071671Y0008670D01*
X0071403Y0008768D01*
X0071137Y0008872D01*
X0070874Y0008983D01*
X0070614Y0009100D01*
X0070356Y0009223D01*
X0070102Y0009353D01*
X0069851Y0009489D01*
X0069603Y0009630D01*
X0069359Y0009778D01*
X0069118Y0009931D01*
X0068882Y0010091D01*
X0068649Y0010256D01*
X0068420Y0010426D01*
X0068195Y0010602D01*
X0067975Y0010784D01*
X0067759Y0010970D01*
X0067548Y0011162D01*
X0067341Y0011359D01*
X0067139Y0011561D01*
X0066942Y0011768D01*
X0066750Y0011979D01*
X0066564Y0012195D01*
X0066382Y0012415D01*
X0066206Y0012640D01*
X0066036Y0012869D01*
X0065871Y0013102D01*
X0065711Y0013338D01*
X0065558Y0013579D01*
X0065410Y0013823D01*
X0065269Y0014071D01*
X0065133Y0014322D01*
X0065003Y0014576D01*
X0064880Y0014834D01*
X0064763Y0015094D01*
X0064652Y0015357D01*
X0064548Y0015623D01*
X0064450Y0015891D01*
X0064358Y0016161D01*
X0064273Y0016434D01*
X0064195Y0016708D01*
X0064123Y0016984D01*
X0064058Y0017262D01*
X0064000Y0017542D01*
X0063949Y0017823D01*
X0063904Y0018104D01*
X0063866Y0018387D01*
X0063835Y0018671D01*
X0063811Y0018955D01*
X0063794Y0019240D01*
X0063783Y0019526D01*
X0063780Y0019811D01*
X0267874Y0020500D02*
X0267876Y0020653D01*
X0267882Y0020807D01*
X0267892Y0020960D01*
X0267906Y0021112D01*
X0267924Y0021265D01*
X0267946Y0021416D01*
X0267971Y0021567D01*
X0268001Y0021718D01*
X0268035Y0021868D01*
X0268072Y0022016D01*
X0268113Y0022164D01*
X0268158Y0022310D01*
X0268207Y0022456D01*
X0268260Y0022600D01*
X0268316Y0022742D01*
X0268376Y0022883D01*
X0268440Y0023023D01*
X0268507Y0023161D01*
X0268578Y0023297D01*
X0268653Y0023431D01*
X0268730Y0023563D01*
X0268812Y0023693D01*
X0268896Y0023821D01*
X0268984Y0023947D01*
X0269075Y0024070D01*
X0269169Y0024191D01*
X0269267Y0024309D01*
X0269367Y0024425D01*
X0269471Y0024538D01*
X0269577Y0024649D01*
X0269686Y0024757D01*
X0269798Y0024862D01*
X0269912Y0024963D01*
X0270030Y0025062D01*
X0270149Y0025158D01*
X0270271Y0025251D01*
X0270396Y0025340D01*
X0270523Y0025427D01*
X0270652Y0025509D01*
X0270783Y0025589D01*
X0270916Y0025665D01*
X0271051Y0025738D01*
X0271188Y0025807D01*
X0271327Y0025872D01*
X0271467Y0025934D01*
X0271609Y0025992D01*
X0271752Y0026047D01*
X0271897Y0026098D01*
X0272043Y0026145D01*
X0272190Y0026188D01*
X0272338Y0026227D01*
X0272487Y0026263D01*
X0272637Y0026294D01*
X0272788Y0026322D01*
X0272939Y0026346D01*
X0273092Y0026366D01*
X0273244Y0026382D01*
X0273397Y0026394D01*
X0273550Y0026402D01*
X0273703Y0026406D01*
X0273857Y0026406D01*
X0274010Y0026402D01*
X0274163Y0026394D01*
X0274316Y0026382D01*
X0274468Y0026366D01*
X0274621Y0026346D01*
X0274772Y0026322D01*
X0274923Y0026294D01*
X0275073Y0026263D01*
X0275222Y0026227D01*
X0275370Y0026188D01*
X0275517Y0026145D01*
X0275663Y0026098D01*
X0275808Y0026047D01*
X0275951Y0025992D01*
X0276093Y0025934D01*
X0276233Y0025872D01*
X0276372Y0025807D01*
X0276509Y0025738D01*
X0276644Y0025665D01*
X0276777Y0025589D01*
X0276908Y0025509D01*
X0277037Y0025427D01*
X0277164Y0025340D01*
X0277289Y0025251D01*
X0277411Y0025158D01*
X0277530Y0025062D01*
X0277648Y0024963D01*
X0277762Y0024862D01*
X0277874Y0024757D01*
X0277983Y0024649D01*
X0278089Y0024538D01*
X0278193Y0024425D01*
X0278293Y0024309D01*
X0278391Y0024191D01*
X0278485Y0024070D01*
X0278576Y0023947D01*
X0278664Y0023821D01*
X0278748Y0023693D01*
X0278830Y0023563D01*
X0278907Y0023431D01*
X0278982Y0023297D01*
X0279053Y0023161D01*
X0279120Y0023023D01*
X0279184Y0022883D01*
X0279244Y0022742D01*
X0279300Y0022600D01*
X0279353Y0022456D01*
X0279402Y0022310D01*
X0279447Y0022164D01*
X0279488Y0022016D01*
X0279525Y0021868D01*
X0279559Y0021718D01*
X0279589Y0021567D01*
X0279614Y0021416D01*
X0279636Y0021265D01*
X0279654Y0021112D01*
X0279668Y0020960D01*
X0279678Y0020807D01*
X0279684Y0020653D01*
X0279686Y0020500D01*
X0279684Y0020347D01*
X0279678Y0020193D01*
X0279668Y0020040D01*
X0279654Y0019888D01*
X0279636Y0019735D01*
X0279614Y0019584D01*
X0279589Y0019433D01*
X0279559Y0019282D01*
X0279525Y0019132D01*
X0279488Y0018984D01*
X0279447Y0018836D01*
X0279402Y0018690D01*
X0279353Y0018544D01*
X0279300Y0018400D01*
X0279244Y0018258D01*
X0279184Y0018117D01*
X0279120Y0017977D01*
X0279053Y0017839D01*
X0278982Y0017703D01*
X0278907Y0017569D01*
X0278830Y0017437D01*
X0278748Y0017307D01*
X0278664Y0017179D01*
X0278576Y0017053D01*
X0278485Y0016930D01*
X0278391Y0016809D01*
X0278293Y0016691D01*
X0278193Y0016575D01*
X0278089Y0016462D01*
X0277983Y0016351D01*
X0277874Y0016243D01*
X0277762Y0016138D01*
X0277648Y0016037D01*
X0277530Y0015938D01*
X0277411Y0015842D01*
X0277289Y0015749D01*
X0277164Y0015660D01*
X0277037Y0015573D01*
X0276908Y0015491D01*
X0276777Y0015411D01*
X0276644Y0015335D01*
X0276509Y0015262D01*
X0276372Y0015193D01*
X0276233Y0015128D01*
X0276093Y0015066D01*
X0275951Y0015008D01*
X0275808Y0014953D01*
X0275663Y0014902D01*
X0275517Y0014855D01*
X0275370Y0014812D01*
X0275222Y0014773D01*
X0275073Y0014737D01*
X0274923Y0014706D01*
X0274772Y0014678D01*
X0274621Y0014654D01*
X0274468Y0014634D01*
X0274316Y0014618D01*
X0274163Y0014606D01*
X0274010Y0014598D01*
X0273857Y0014594D01*
X0273703Y0014594D01*
X0273550Y0014598D01*
X0273397Y0014606D01*
X0273244Y0014618D01*
X0273092Y0014634D01*
X0272939Y0014654D01*
X0272788Y0014678D01*
X0272637Y0014706D01*
X0272487Y0014737D01*
X0272338Y0014773D01*
X0272190Y0014812D01*
X0272043Y0014855D01*
X0271897Y0014902D01*
X0271752Y0014953D01*
X0271609Y0015008D01*
X0271467Y0015066D01*
X0271327Y0015128D01*
X0271188Y0015193D01*
X0271051Y0015262D01*
X0270916Y0015335D01*
X0270783Y0015411D01*
X0270652Y0015491D01*
X0270523Y0015573D01*
X0270396Y0015660D01*
X0270271Y0015749D01*
X0270149Y0015842D01*
X0270030Y0015938D01*
X0269912Y0016037D01*
X0269798Y0016138D01*
X0269686Y0016243D01*
X0269577Y0016351D01*
X0269471Y0016462D01*
X0269367Y0016575D01*
X0269267Y0016691D01*
X0269169Y0016809D01*
X0269075Y0016930D01*
X0268984Y0017053D01*
X0268896Y0017179D01*
X0268812Y0017307D01*
X0268730Y0017437D01*
X0268653Y0017569D01*
X0268578Y0017703D01*
X0268507Y0017839D01*
X0268440Y0017977D01*
X0268376Y0018117D01*
X0268316Y0018258D01*
X0268260Y0018400D01*
X0268207Y0018544D01*
X0268158Y0018690D01*
X0268113Y0018836D01*
X0268072Y0018984D01*
X0268035Y0019132D01*
X0268001Y0019282D01*
X0267971Y0019433D01*
X0267946Y0019584D01*
X0267924Y0019735D01*
X0267906Y0019888D01*
X0267892Y0020040D01*
X0267882Y0020193D01*
X0267876Y0020347D01*
X0267874Y0020500D01*
X0512874Y0020500D02*
X0512876Y0020653D01*
X0512882Y0020807D01*
X0512892Y0020960D01*
X0512906Y0021112D01*
X0512924Y0021265D01*
X0512946Y0021416D01*
X0512971Y0021567D01*
X0513001Y0021718D01*
X0513035Y0021868D01*
X0513072Y0022016D01*
X0513113Y0022164D01*
X0513158Y0022310D01*
X0513207Y0022456D01*
X0513260Y0022600D01*
X0513316Y0022742D01*
X0513376Y0022883D01*
X0513440Y0023023D01*
X0513507Y0023161D01*
X0513578Y0023297D01*
X0513653Y0023431D01*
X0513730Y0023563D01*
X0513812Y0023693D01*
X0513896Y0023821D01*
X0513984Y0023947D01*
X0514075Y0024070D01*
X0514169Y0024191D01*
X0514267Y0024309D01*
X0514367Y0024425D01*
X0514471Y0024538D01*
X0514577Y0024649D01*
X0514686Y0024757D01*
X0514798Y0024862D01*
X0514912Y0024963D01*
X0515030Y0025062D01*
X0515149Y0025158D01*
X0515271Y0025251D01*
X0515396Y0025340D01*
X0515523Y0025427D01*
X0515652Y0025509D01*
X0515783Y0025589D01*
X0515916Y0025665D01*
X0516051Y0025738D01*
X0516188Y0025807D01*
X0516327Y0025872D01*
X0516467Y0025934D01*
X0516609Y0025992D01*
X0516752Y0026047D01*
X0516897Y0026098D01*
X0517043Y0026145D01*
X0517190Y0026188D01*
X0517338Y0026227D01*
X0517487Y0026263D01*
X0517637Y0026294D01*
X0517788Y0026322D01*
X0517939Y0026346D01*
X0518092Y0026366D01*
X0518244Y0026382D01*
X0518397Y0026394D01*
X0518550Y0026402D01*
X0518703Y0026406D01*
X0518857Y0026406D01*
X0519010Y0026402D01*
X0519163Y0026394D01*
X0519316Y0026382D01*
X0519468Y0026366D01*
X0519621Y0026346D01*
X0519772Y0026322D01*
X0519923Y0026294D01*
X0520073Y0026263D01*
X0520222Y0026227D01*
X0520370Y0026188D01*
X0520517Y0026145D01*
X0520663Y0026098D01*
X0520808Y0026047D01*
X0520951Y0025992D01*
X0521093Y0025934D01*
X0521233Y0025872D01*
X0521372Y0025807D01*
X0521509Y0025738D01*
X0521644Y0025665D01*
X0521777Y0025589D01*
X0521908Y0025509D01*
X0522037Y0025427D01*
X0522164Y0025340D01*
X0522289Y0025251D01*
X0522411Y0025158D01*
X0522530Y0025062D01*
X0522648Y0024963D01*
X0522762Y0024862D01*
X0522874Y0024757D01*
X0522983Y0024649D01*
X0523089Y0024538D01*
X0523193Y0024425D01*
X0523293Y0024309D01*
X0523391Y0024191D01*
X0523485Y0024070D01*
X0523576Y0023947D01*
X0523664Y0023821D01*
X0523748Y0023693D01*
X0523830Y0023563D01*
X0523907Y0023431D01*
X0523982Y0023297D01*
X0524053Y0023161D01*
X0524120Y0023023D01*
X0524184Y0022883D01*
X0524244Y0022742D01*
X0524300Y0022600D01*
X0524353Y0022456D01*
X0524402Y0022310D01*
X0524447Y0022164D01*
X0524488Y0022016D01*
X0524525Y0021868D01*
X0524559Y0021718D01*
X0524589Y0021567D01*
X0524614Y0021416D01*
X0524636Y0021265D01*
X0524654Y0021112D01*
X0524668Y0020960D01*
X0524678Y0020807D01*
X0524684Y0020653D01*
X0524686Y0020500D01*
X0524684Y0020347D01*
X0524678Y0020193D01*
X0524668Y0020040D01*
X0524654Y0019888D01*
X0524636Y0019735D01*
X0524614Y0019584D01*
X0524589Y0019433D01*
X0524559Y0019282D01*
X0524525Y0019132D01*
X0524488Y0018984D01*
X0524447Y0018836D01*
X0524402Y0018690D01*
X0524353Y0018544D01*
X0524300Y0018400D01*
X0524244Y0018258D01*
X0524184Y0018117D01*
X0524120Y0017977D01*
X0524053Y0017839D01*
X0523982Y0017703D01*
X0523907Y0017569D01*
X0523830Y0017437D01*
X0523748Y0017307D01*
X0523664Y0017179D01*
X0523576Y0017053D01*
X0523485Y0016930D01*
X0523391Y0016809D01*
X0523293Y0016691D01*
X0523193Y0016575D01*
X0523089Y0016462D01*
X0522983Y0016351D01*
X0522874Y0016243D01*
X0522762Y0016138D01*
X0522648Y0016037D01*
X0522530Y0015938D01*
X0522411Y0015842D01*
X0522289Y0015749D01*
X0522164Y0015660D01*
X0522037Y0015573D01*
X0521908Y0015491D01*
X0521777Y0015411D01*
X0521644Y0015335D01*
X0521509Y0015262D01*
X0521372Y0015193D01*
X0521233Y0015128D01*
X0521093Y0015066D01*
X0520951Y0015008D01*
X0520808Y0014953D01*
X0520663Y0014902D01*
X0520517Y0014855D01*
X0520370Y0014812D01*
X0520222Y0014773D01*
X0520073Y0014737D01*
X0519923Y0014706D01*
X0519772Y0014678D01*
X0519621Y0014654D01*
X0519468Y0014634D01*
X0519316Y0014618D01*
X0519163Y0014606D01*
X0519010Y0014598D01*
X0518857Y0014594D01*
X0518703Y0014594D01*
X0518550Y0014598D01*
X0518397Y0014606D01*
X0518244Y0014618D01*
X0518092Y0014634D01*
X0517939Y0014654D01*
X0517788Y0014678D01*
X0517637Y0014706D01*
X0517487Y0014737D01*
X0517338Y0014773D01*
X0517190Y0014812D01*
X0517043Y0014855D01*
X0516897Y0014902D01*
X0516752Y0014953D01*
X0516609Y0015008D01*
X0516467Y0015066D01*
X0516327Y0015128D01*
X0516188Y0015193D01*
X0516051Y0015262D01*
X0515916Y0015335D01*
X0515783Y0015411D01*
X0515652Y0015491D01*
X0515523Y0015573D01*
X0515396Y0015660D01*
X0515271Y0015749D01*
X0515149Y0015842D01*
X0515030Y0015938D01*
X0514912Y0016037D01*
X0514798Y0016138D01*
X0514686Y0016243D01*
X0514577Y0016351D01*
X0514471Y0016462D01*
X0514367Y0016575D01*
X0514267Y0016691D01*
X0514169Y0016809D01*
X0514075Y0016930D01*
X0513984Y0017053D01*
X0513896Y0017179D01*
X0513812Y0017307D01*
X0513730Y0017437D01*
X0513653Y0017569D01*
X0513578Y0017703D01*
X0513507Y0017839D01*
X0513440Y0017977D01*
X0513376Y0018117D01*
X0513316Y0018258D01*
X0513260Y0018400D01*
X0513207Y0018544D01*
X0513158Y0018690D01*
X0513113Y0018836D01*
X0513072Y0018984D01*
X0513035Y0019132D01*
X0513001Y0019282D01*
X0512971Y0019433D01*
X0512946Y0019584D01*
X0512924Y0019735D01*
X0512906Y0019888D01*
X0512892Y0020040D01*
X0512882Y0020193D01*
X0512876Y0020347D01*
X0512874Y0020500D01*
X0512874Y0205500D02*
X0512876Y0205653D01*
X0512882Y0205807D01*
X0512892Y0205960D01*
X0512906Y0206112D01*
X0512924Y0206265D01*
X0512946Y0206416D01*
X0512971Y0206567D01*
X0513001Y0206718D01*
X0513035Y0206868D01*
X0513072Y0207016D01*
X0513113Y0207164D01*
X0513158Y0207310D01*
X0513207Y0207456D01*
X0513260Y0207600D01*
X0513316Y0207742D01*
X0513376Y0207883D01*
X0513440Y0208023D01*
X0513507Y0208161D01*
X0513578Y0208297D01*
X0513653Y0208431D01*
X0513730Y0208563D01*
X0513812Y0208693D01*
X0513896Y0208821D01*
X0513984Y0208947D01*
X0514075Y0209070D01*
X0514169Y0209191D01*
X0514267Y0209309D01*
X0514367Y0209425D01*
X0514471Y0209538D01*
X0514577Y0209649D01*
X0514686Y0209757D01*
X0514798Y0209862D01*
X0514912Y0209963D01*
X0515030Y0210062D01*
X0515149Y0210158D01*
X0515271Y0210251D01*
X0515396Y0210340D01*
X0515523Y0210427D01*
X0515652Y0210509D01*
X0515783Y0210589D01*
X0515916Y0210665D01*
X0516051Y0210738D01*
X0516188Y0210807D01*
X0516327Y0210872D01*
X0516467Y0210934D01*
X0516609Y0210992D01*
X0516752Y0211047D01*
X0516897Y0211098D01*
X0517043Y0211145D01*
X0517190Y0211188D01*
X0517338Y0211227D01*
X0517487Y0211263D01*
X0517637Y0211294D01*
X0517788Y0211322D01*
X0517939Y0211346D01*
X0518092Y0211366D01*
X0518244Y0211382D01*
X0518397Y0211394D01*
X0518550Y0211402D01*
X0518703Y0211406D01*
X0518857Y0211406D01*
X0519010Y0211402D01*
X0519163Y0211394D01*
X0519316Y0211382D01*
X0519468Y0211366D01*
X0519621Y0211346D01*
X0519772Y0211322D01*
X0519923Y0211294D01*
X0520073Y0211263D01*
X0520222Y0211227D01*
X0520370Y0211188D01*
X0520517Y0211145D01*
X0520663Y0211098D01*
X0520808Y0211047D01*
X0520951Y0210992D01*
X0521093Y0210934D01*
X0521233Y0210872D01*
X0521372Y0210807D01*
X0521509Y0210738D01*
X0521644Y0210665D01*
X0521777Y0210589D01*
X0521908Y0210509D01*
X0522037Y0210427D01*
X0522164Y0210340D01*
X0522289Y0210251D01*
X0522411Y0210158D01*
X0522530Y0210062D01*
X0522648Y0209963D01*
X0522762Y0209862D01*
X0522874Y0209757D01*
X0522983Y0209649D01*
X0523089Y0209538D01*
X0523193Y0209425D01*
X0523293Y0209309D01*
X0523391Y0209191D01*
X0523485Y0209070D01*
X0523576Y0208947D01*
X0523664Y0208821D01*
X0523748Y0208693D01*
X0523830Y0208563D01*
X0523907Y0208431D01*
X0523982Y0208297D01*
X0524053Y0208161D01*
X0524120Y0208023D01*
X0524184Y0207883D01*
X0524244Y0207742D01*
X0524300Y0207600D01*
X0524353Y0207456D01*
X0524402Y0207310D01*
X0524447Y0207164D01*
X0524488Y0207016D01*
X0524525Y0206868D01*
X0524559Y0206718D01*
X0524589Y0206567D01*
X0524614Y0206416D01*
X0524636Y0206265D01*
X0524654Y0206112D01*
X0524668Y0205960D01*
X0524678Y0205807D01*
X0524684Y0205653D01*
X0524686Y0205500D01*
X0524684Y0205347D01*
X0524678Y0205193D01*
X0524668Y0205040D01*
X0524654Y0204888D01*
X0524636Y0204735D01*
X0524614Y0204584D01*
X0524589Y0204433D01*
X0524559Y0204282D01*
X0524525Y0204132D01*
X0524488Y0203984D01*
X0524447Y0203836D01*
X0524402Y0203690D01*
X0524353Y0203544D01*
X0524300Y0203400D01*
X0524244Y0203258D01*
X0524184Y0203117D01*
X0524120Y0202977D01*
X0524053Y0202839D01*
X0523982Y0202703D01*
X0523907Y0202569D01*
X0523830Y0202437D01*
X0523748Y0202307D01*
X0523664Y0202179D01*
X0523576Y0202053D01*
X0523485Y0201930D01*
X0523391Y0201809D01*
X0523293Y0201691D01*
X0523193Y0201575D01*
X0523089Y0201462D01*
X0522983Y0201351D01*
X0522874Y0201243D01*
X0522762Y0201138D01*
X0522648Y0201037D01*
X0522530Y0200938D01*
X0522411Y0200842D01*
X0522289Y0200749D01*
X0522164Y0200660D01*
X0522037Y0200573D01*
X0521908Y0200491D01*
X0521777Y0200411D01*
X0521644Y0200335D01*
X0521509Y0200262D01*
X0521372Y0200193D01*
X0521233Y0200128D01*
X0521093Y0200066D01*
X0520951Y0200008D01*
X0520808Y0199953D01*
X0520663Y0199902D01*
X0520517Y0199855D01*
X0520370Y0199812D01*
X0520222Y0199773D01*
X0520073Y0199737D01*
X0519923Y0199706D01*
X0519772Y0199678D01*
X0519621Y0199654D01*
X0519468Y0199634D01*
X0519316Y0199618D01*
X0519163Y0199606D01*
X0519010Y0199598D01*
X0518857Y0199594D01*
X0518703Y0199594D01*
X0518550Y0199598D01*
X0518397Y0199606D01*
X0518244Y0199618D01*
X0518092Y0199634D01*
X0517939Y0199654D01*
X0517788Y0199678D01*
X0517637Y0199706D01*
X0517487Y0199737D01*
X0517338Y0199773D01*
X0517190Y0199812D01*
X0517043Y0199855D01*
X0516897Y0199902D01*
X0516752Y0199953D01*
X0516609Y0200008D01*
X0516467Y0200066D01*
X0516327Y0200128D01*
X0516188Y0200193D01*
X0516051Y0200262D01*
X0515916Y0200335D01*
X0515783Y0200411D01*
X0515652Y0200491D01*
X0515523Y0200573D01*
X0515396Y0200660D01*
X0515271Y0200749D01*
X0515149Y0200842D01*
X0515030Y0200938D01*
X0514912Y0201037D01*
X0514798Y0201138D01*
X0514686Y0201243D01*
X0514577Y0201351D01*
X0514471Y0201462D01*
X0514367Y0201575D01*
X0514267Y0201691D01*
X0514169Y0201809D01*
X0514075Y0201930D01*
X0513984Y0202053D01*
X0513896Y0202179D01*
X0513812Y0202307D01*
X0513730Y0202437D01*
X0513653Y0202569D01*
X0513578Y0202703D01*
X0513507Y0202839D01*
X0513440Y0202977D01*
X0513376Y0203117D01*
X0513316Y0203258D01*
X0513260Y0203400D01*
X0513207Y0203544D01*
X0513158Y0203690D01*
X0513113Y0203836D01*
X0513072Y0203984D01*
X0513035Y0204132D01*
X0513001Y0204282D01*
X0512971Y0204433D01*
X0512946Y0204584D01*
X0512924Y0204735D01*
X0512906Y0204888D01*
X0512892Y0205040D01*
X0512882Y0205193D01*
X0512876Y0205347D01*
X0512874Y0205500D01*
X0519409Y0218000D02*
X0519695Y0217997D01*
X0519981Y0217988D01*
X0520267Y0217971D01*
X0520552Y0217948D01*
X0520837Y0217917D01*
X0521120Y0217880D01*
X0521403Y0217836D01*
X0521685Y0217785D01*
X0521965Y0217727D01*
X0522244Y0217663D01*
X0522521Y0217592D01*
X0522796Y0217514D01*
X0523069Y0217430D01*
X0523341Y0217339D01*
X0523610Y0217241D01*
X0523876Y0217137D01*
X0524140Y0217027D01*
X0524401Y0216910D01*
X0524660Y0216787D01*
X0524915Y0216658D01*
X0525167Y0216522D01*
X0525416Y0216381D01*
X0525661Y0216233D01*
X0525903Y0216080D01*
X0526140Y0215921D01*
X0526374Y0215756D01*
X0526604Y0215586D01*
X0526830Y0215410D01*
X0527051Y0215229D01*
X0527268Y0215042D01*
X0527481Y0214850D01*
X0527688Y0214653D01*
X0527891Y0214451D01*
X0528089Y0214245D01*
X0528282Y0214033D01*
X0528469Y0213817D01*
X0528652Y0213597D01*
X0528829Y0213372D01*
X0529000Y0213143D01*
X0529166Y0212910D01*
X0529327Y0212673D01*
X0529481Y0212432D01*
X0529630Y0212188D01*
X0529772Y0211940D01*
X0529909Y0211688D01*
X0530040Y0211434D01*
X0530164Y0211176D01*
X0530282Y0210915D01*
X0530394Y0210652D01*
X0530499Y0210386D01*
X0530598Y0210117D01*
X0530690Y0209847D01*
X0530776Y0209574D01*
X0530855Y0209299D01*
X0530928Y0209022D01*
X0530994Y0208743D01*
X0531053Y0208463D01*
X0531105Y0208182D01*
X0531151Y0207900D01*
X0531189Y0207616D01*
X0531221Y0207332D01*
X0531246Y0207047D01*
X0531264Y0206761D01*
X0531275Y0206475D01*
X0531279Y0206189D01*
X0267874Y0205500D02*
X0267876Y0205653D01*
X0267882Y0205807D01*
X0267892Y0205960D01*
X0267906Y0206112D01*
X0267924Y0206265D01*
X0267946Y0206416D01*
X0267971Y0206567D01*
X0268001Y0206718D01*
X0268035Y0206868D01*
X0268072Y0207016D01*
X0268113Y0207164D01*
X0268158Y0207310D01*
X0268207Y0207456D01*
X0268260Y0207600D01*
X0268316Y0207742D01*
X0268376Y0207883D01*
X0268440Y0208023D01*
X0268507Y0208161D01*
X0268578Y0208297D01*
X0268653Y0208431D01*
X0268730Y0208563D01*
X0268812Y0208693D01*
X0268896Y0208821D01*
X0268984Y0208947D01*
X0269075Y0209070D01*
X0269169Y0209191D01*
X0269267Y0209309D01*
X0269367Y0209425D01*
X0269471Y0209538D01*
X0269577Y0209649D01*
X0269686Y0209757D01*
X0269798Y0209862D01*
X0269912Y0209963D01*
X0270030Y0210062D01*
X0270149Y0210158D01*
X0270271Y0210251D01*
X0270396Y0210340D01*
X0270523Y0210427D01*
X0270652Y0210509D01*
X0270783Y0210589D01*
X0270916Y0210665D01*
X0271051Y0210738D01*
X0271188Y0210807D01*
X0271327Y0210872D01*
X0271467Y0210934D01*
X0271609Y0210992D01*
X0271752Y0211047D01*
X0271897Y0211098D01*
X0272043Y0211145D01*
X0272190Y0211188D01*
X0272338Y0211227D01*
X0272487Y0211263D01*
X0272637Y0211294D01*
X0272788Y0211322D01*
X0272939Y0211346D01*
X0273092Y0211366D01*
X0273244Y0211382D01*
X0273397Y0211394D01*
X0273550Y0211402D01*
X0273703Y0211406D01*
X0273857Y0211406D01*
X0274010Y0211402D01*
X0274163Y0211394D01*
X0274316Y0211382D01*
X0274468Y0211366D01*
X0274621Y0211346D01*
X0274772Y0211322D01*
X0274923Y0211294D01*
X0275073Y0211263D01*
X0275222Y0211227D01*
X0275370Y0211188D01*
X0275517Y0211145D01*
X0275663Y0211098D01*
X0275808Y0211047D01*
X0275951Y0210992D01*
X0276093Y0210934D01*
X0276233Y0210872D01*
X0276372Y0210807D01*
X0276509Y0210738D01*
X0276644Y0210665D01*
X0276777Y0210589D01*
X0276908Y0210509D01*
X0277037Y0210427D01*
X0277164Y0210340D01*
X0277289Y0210251D01*
X0277411Y0210158D01*
X0277530Y0210062D01*
X0277648Y0209963D01*
X0277762Y0209862D01*
X0277874Y0209757D01*
X0277983Y0209649D01*
X0278089Y0209538D01*
X0278193Y0209425D01*
X0278293Y0209309D01*
X0278391Y0209191D01*
X0278485Y0209070D01*
X0278576Y0208947D01*
X0278664Y0208821D01*
X0278748Y0208693D01*
X0278830Y0208563D01*
X0278907Y0208431D01*
X0278982Y0208297D01*
X0279053Y0208161D01*
X0279120Y0208023D01*
X0279184Y0207883D01*
X0279244Y0207742D01*
X0279300Y0207600D01*
X0279353Y0207456D01*
X0279402Y0207310D01*
X0279447Y0207164D01*
X0279488Y0207016D01*
X0279525Y0206868D01*
X0279559Y0206718D01*
X0279589Y0206567D01*
X0279614Y0206416D01*
X0279636Y0206265D01*
X0279654Y0206112D01*
X0279668Y0205960D01*
X0279678Y0205807D01*
X0279684Y0205653D01*
X0279686Y0205500D01*
X0279684Y0205347D01*
X0279678Y0205193D01*
X0279668Y0205040D01*
X0279654Y0204888D01*
X0279636Y0204735D01*
X0279614Y0204584D01*
X0279589Y0204433D01*
X0279559Y0204282D01*
X0279525Y0204132D01*
X0279488Y0203984D01*
X0279447Y0203836D01*
X0279402Y0203690D01*
X0279353Y0203544D01*
X0279300Y0203400D01*
X0279244Y0203258D01*
X0279184Y0203117D01*
X0279120Y0202977D01*
X0279053Y0202839D01*
X0278982Y0202703D01*
X0278907Y0202569D01*
X0278830Y0202437D01*
X0278748Y0202307D01*
X0278664Y0202179D01*
X0278576Y0202053D01*
X0278485Y0201930D01*
X0278391Y0201809D01*
X0278293Y0201691D01*
X0278193Y0201575D01*
X0278089Y0201462D01*
X0277983Y0201351D01*
X0277874Y0201243D01*
X0277762Y0201138D01*
X0277648Y0201037D01*
X0277530Y0200938D01*
X0277411Y0200842D01*
X0277289Y0200749D01*
X0277164Y0200660D01*
X0277037Y0200573D01*
X0276908Y0200491D01*
X0276777Y0200411D01*
X0276644Y0200335D01*
X0276509Y0200262D01*
X0276372Y0200193D01*
X0276233Y0200128D01*
X0276093Y0200066D01*
X0275951Y0200008D01*
X0275808Y0199953D01*
X0275663Y0199902D01*
X0275517Y0199855D01*
X0275370Y0199812D01*
X0275222Y0199773D01*
X0275073Y0199737D01*
X0274923Y0199706D01*
X0274772Y0199678D01*
X0274621Y0199654D01*
X0274468Y0199634D01*
X0274316Y0199618D01*
X0274163Y0199606D01*
X0274010Y0199598D01*
X0273857Y0199594D01*
X0273703Y0199594D01*
X0273550Y0199598D01*
X0273397Y0199606D01*
X0273244Y0199618D01*
X0273092Y0199634D01*
X0272939Y0199654D01*
X0272788Y0199678D01*
X0272637Y0199706D01*
X0272487Y0199737D01*
X0272338Y0199773D01*
X0272190Y0199812D01*
X0272043Y0199855D01*
X0271897Y0199902D01*
X0271752Y0199953D01*
X0271609Y0200008D01*
X0271467Y0200066D01*
X0271327Y0200128D01*
X0271188Y0200193D01*
X0271051Y0200262D01*
X0270916Y0200335D01*
X0270783Y0200411D01*
X0270652Y0200491D01*
X0270523Y0200573D01*
X0270396Y0200660D01*
X0270271Y0200749D01*
X0270149Y0200842D01*
X0270030Y0200938D01*
X0269912Y0201037D01*
X0269798Y0201138D01*
X0269686Y0201243D01*
X0269577Y0201351D01*
X0269471Y0201462D01*
X0269367Y0201575D01*
X0269267Y0201691D01*
X0269169Y0201809D01*
X0269075Y0201930D01*
X0268984Y0202053D01*
X0268896Y0202179D01*
X0268812Y0202307D01*
X0268730Y0202437D01*
X0268653Y0202569D01*
X0268578Y0202703D01*
X0268507Y0202839D01*
X0268440Y0202977D01*
X0268376Y0203117D01*
X0268316Y0203258D01*
X0268260Y0203400D01*
X0268207Y0203544D01*
X0268158Y0203690D01*
X0268113Y0203836D01*
X0268072Y0203984D01*
X0268035Y0204132D01*
X0268001Y0204282D01*
X0267971Y0204433D01*
X0267946Y0204584D01*
X0267924Y0204735D01*
X0267906Y0204888D01*
X0267892Y0205040D01*
X0267882Y0205193D01*
X0267876Y0205347D01*
X0267874Y0205500D01*
D11*
X0255000Y0208000D03*
X0245000Y0208000D03*
X0235000Y0208000D03*
X0225000Y0208000D03*
X0215000Y0208000D03*
X0205000Y0208000D03*
X0195000Y0208000D03*
X0185000Y0208000D03*
X0169000Y0208000D03*
X0159000Y0208000D03*
X0149000Y0208000D03*
X0139000Y0208000D03*
X0129000Y0208000D03*
X0119000Y0208000D03*
X0109000Y0208000D03*
X0099000Y0208000D03*
X0089000Y0208000D03*
X0079000Y0208000D03*
X0115000Y0018000D03*
X0125000Y0018000D03*
X0135000Y0018000D03*
X0145000Y0018000D03*
X0155000Y0018000D03*
X0165000Y0018000D03*
X0175000Y0018000D03*
X0185000Y0018000D03*
X0205000Y0018000D03*
X0215000Y0018000D03*
X0225000Y0018000D03*
X0235000Y0018000D03*
X0245000Y0018000D03*
X0255000Y0018000D03*
D12*
X0255080Y0032000D03*
X0245080Y0032000D03*
X0235080Y0032000D03*
X0225080Y0032000D03*
X0215080Y0032000D03*
X0205080Y0032000D03*
X0184980Y0032000D03*
X0174980Y0032000D03*
X0164980Y0032000D03*
X0154980Y0032000D03*
X0144980Y0032000D03*
X0134980Y0032000D03*
X0124980Y0032000D03*
X0114980Y0032000D03*
X0119080Y0193000D03*
X0129080Y0193000D03*
X0139080Y0193000D03*
X0149080Y0193000D03*
X0159080Y0193000D03*
X0169080Y0193000D03*
X0185080Y0193000D03*
X0195080Y0193000D03*
X0205080Y0193000D03*
X0215080Y0193000D03*
X0225080Y0193000D03*
X0235080Y0193000D03*
X0245080Y0193000D03*
X0255080Y0193000D03*
X0109080Y0193000D03*
X0099080Y0193000D03*
X0089080Y0193000D03*
X0079080Y0193000D03*
D13*
X0185280Y0179500D03*
X0195280Y0179500D03*
X0205280Y0179500D03*
X0215280Y0179500D03*
X0225280Y0179500D03*
X0235280Y0179500D03*
D14*
X0100780Y0034800D02*
X0100780Y0029200D01*
X0090780Y0029200D02*
X0090780Y0034800D01*
X0080780Y0034800D02*
X0080780Y0029200D01*
D15*
X0085780Y0051000D03*
X0095780Y0051000D03*
X0105780Y0051000D03*
X0115780Y0051000D03*
X0125780Y0051000D03*
X0135780Y0051000D03*
X0145780Y0051000D03*
X0155780Y0051000D03*
X0165780Y0051000D03*
X0175780Y0051000D03*
X0185780Y0051000D03*
X0195780Y0051000D03*
X0205780Y0051000D03*
X0215780Y0051000D03*
X0225780Y0051000D03*
X0235780Y0051000D03*
X0245780Y0051000D03*
X0255780Y0051000D03*
X0265780Y0051000D03*
X0265780Y0061000D03*
X0255780Y0061000D03*
X0245780Y0061000D03*
X0235780Y0061000D03*
X0225780Y0061000D03*
X0215780Y0061000D03*
X0205780Y0061000D03*
X0195780Y0061000D03*
X0185780Y0061000D03*
X0175780Y0061000D03*
X0165780Y0061000D03*
X0155780Y0061000D03*
X0145780Y0061000D03*
X0135780Y0061000D03*
X0125780Y0061000D03*
X0115780Y0061000D03*
X0105780Y0061000D03*
X0095780Y0061000D03*
X0085780Y0061000D03*
X0075780Y0061000D03*
X0075780Y0051000D03*
D16*
X0141780Y0082000D03*
X0154780Y0093000D03*
X0177780Y0097000D03*
X0196780Y0101000D03*
X0195780Y0113000D03*
X0194780Y0121000D03*
X0214780Y0126000D03*
X0161780Y0129000D03*
X0142780Y0131000D03*
X0129780Y0128000D03*
X0130780Y0117000D03*
X0129780Y0112000D03*
X0155780Y0108000D03*
X0098780Y0109000D03*
X0137780Y0151000D03*
X0160780Y0162000D03*
X0205780Y0167000D03*
X0243780Y0182000D03*
X0216780Y0077000D03*
D17*
X0216780Y0075000D01*
X0215780Y0074000D01*
X0139780Y0074000D01*
X0138780Y0075000D01*
X0138780Y0085000D01*
X0139780Y0086000D01*
X0142780Y0086000D01*
X0144780Y0084000D01*
X0148147Y0084000D01*
X0148780Y0084632D01*
X0148780Y0108000D01*
X0147780Y0109000D01*
X0127780Y0109000D01*
X0126780Y0110000D01*
X0126780Y0114000D01*
X0127780Y0115000D01*
X0129780Y0115000D01*
X0131780Y0115000D01*
X0132780Y0114000D01*
X0145780Y0114000D01*
X0146780Y0115000D01*
X0146780Y0132000D01*
X0145780Y0131000D01*
X0142780Y0131000D01*
X0146780Y0132000D02*
X0146780Y0149000D01*
X0144780Y0151000D01*
X0137780Y0151000D01*
X0156780Y0132000D02*
X0158780Y0134000D01*
X0165780Y0134000D01*
X0167780Y0132000D01*
X0198780Y0132000D01*
X0199780Y0133000D01*
X0199780Y0162000D01*
X0198780Y0163000D01*
X0198780Y0171000D01*
X0201780Y0174000D01*
X0213780Y0174000D01*
X0215780Y0176000D01*
X0215780Y0179000D01*
X0215280Y0179500D01*
X0225280Y0179500D02*
X0225780Y0179000D01*
X0225780Y0174000D01*
X0223780Y0172000D01*
X0202780Y0172000D01*
X0200780Y0170000D01*
X0200780Y0164000D01*
X0201780Y0163000D01*
X0201780Y0132000D01*
X0199780Y0130000D01*
X0166780Y0130000D01*
X0164780Y0132000D01*
X0159780Y0132000D01*
X0158780Y0131000D01*
X0158780Y0129000D01*
X0157780Y0128000D01*
X0153780Y0128000D01*
X0150780Y0125000D01*
X0150780Y0084000D01*
X0148780Y0082000D01*
X0141780Y0082000D01*
X0154780Y0093000D02*
X0176780Y0093000D01*
X0177780Y0094000D01*
X0177780Y0097000D01*
X0177780Y0096000D01*
X0195780Y0102000D02*
X0196780Y0101000D01*
X0195780Y0102000D02*
X0195780Y0113000D01*
X0194780Y0121000D02*
X0193780Y0121000D01*
X0201780Y0126000D02*
X0205780Y0130000D01*
X0205780Y0167000D01*
X0207780Y0164000D02*
X0209780Y0166000D01*
X0209780Y0167000D01*
X0210780Y0168000D01*
X0241780Y0168000D01*
X0243780Y0170000D01*
X0243780Y0182000D01*
X0235280Y0179500D02*
X0235280Y0172500D01*
X0232780Y0170000D01*
X0203780Y0170000D01*
X0202780Y0169000D01*
X0202780Y0165000D01*
X0203780Y0164000D01*
X0203780Y0131000D01*
X0200780Y0128000D01*
X0163780Y0128000D01*
X0162780Y0129000D01*
X0161780Y0129000D01*
X0156780Y0131000D02*
X0156780Y0132000D01*
X0156780Y0131000D02*
X0155780Y0130000D01*
X0152780Y0130000D01*
X0148780Y0126000D01*
X0148780Y0114000D01*
X0146780Y0112000D01*
X0129780Y0112000D01*
X0129780Y0115000D02*
X0130780Y0116000D01*
X0130780Y0117000D01*
X0152780Y0124000D02*
X0152780Y0109000D01*
X0153780Y0108000D01*
X0155780Y0108000D01*
X0152780Y0124000D02*
X0154780Y0126000D01*
X0201780Y0126000D01*
X0207780Y0128000D02*
X0209780Y0126000D01*
X0214780Y0126000D01*
X0215780Y0126000D01*
X0216780Y0125000D01*
X0216780Y0077000D01*
X0247780Y0070000D02*
X0249780Y0068000D01*
X0249780Y0062000D01*
X0248780Y0061000D01*
X0245780Y0061000D01*
X0251780Y0062000D02*
X0252780Y0061000D01*
X0255780Y0061000D01*
X0251780Y0062000D02*
X0251780Y0069000D01*
X0248780Y0072000D01*
X0086780Y0072000D01*
X0084780Y0074000D01*
X0084780Y0134000D01*
X0087780Y0131000D01*
X0128780Y0131000D01*
X0129780Y0130000D01*
X0129780Y0128000D01*
X0084780Y0134000D02*
X0084780Y0192000D01*
X0085780Y0193000D01*
X0089080Y0193000D01*
X0082780Y0192000D02*
X0082780Y0073000D01*
X0085780Y0070000D01*
X0247780Y0070000D01*
X0238780Y0093000D02*
X0238780Y0094000D01*
X0238780Y0114000D02*
X0239780Y0114000D01*
X0207780Y0128000D02*
X0207780Y0164000D01*
X0222720Y0143000D02*
X0222780Y0143000D01*
X0238780Y0135000D02*
X0238780Y0134000D01*
X0290780Y0120000D02*
X0291780Y0120000D01*
X0292780Y0119000D01*
X0290780Y0120000D02*
X0294220Y0116559D01*
X0294220Y0114000D01*
X0082780Y0192000D02*
X0081780Y0193000D01*
X0078780Y0193000D01*
D18*
X0079080Y0193000D01*
X0073956Y0190996D02*
X0065780Y0190996D01*
X0065780Y0189398D02*
X0074904Y0189398D01*
X0074417Y0189884D02*
X0073580Y0191906D01*
X0073580Y0194094D01*
X0074417Y0196115D01*
X0075964Y0197663D01*
X0077985Y0198500D01*
X0080174Y0198500D01*
X0082195Y0197663D01*
X0083742Y0196115D01*
X0084080Y0195301D01*
X0084417Y0196115D01*
X0085964Y0197663D01*
X0087985Y0198500D01*
X0090174Y0198500D01*
X0092195Y0197663D01*
X0093742Y0196115D01*
X0094080Y0195301D01*
X0094417Y0196115D01*
X0095964Y0197663D01*
X0097985Y0198500D01*
X0100174Y0198500D01*
X0102195Y0197663D01*
X0103742Y0196115D01*
X0104180Y0195058D01*
X0104547Y0195778D01*
X0105037Y0196453D01*
X0105627Y0197043D01*
X0106302Y0197533D01*
X0107045Y0197912D01*
X0107838Y0198169D01*
X0108662Y0198300D01*
X0108895Y0198300D01*
X0108895Y0193184D01*
X0109264Y0193184D01*
X0109264Y0198300D01*
X0109497Y0198300D01*
X0110321Y0198169D01*
X0111114Y0197912D01*
X0111857Y0197533D01*
X0112532Y0197043D01*
X0113122Y0196453D01*
X0113612Y0195778D01*
X0113979Y0195058D01*
X0114417Y0196115D01*
X0115964Y0197663D01*
X0117985Y0198500D01*
X0120174Y0198500D01*
X0122195Y0197663D01*
X0123742Y0196115D01*
X0124080Y0195301D01*
X0124417Y0196115D01*
X0125964Y0197663D01*
X0127985Y0198500D01*
X0130174Y0198500D01*
X0132195Y0197663D01*
X0133742Y0196115D01*
X0134080Y0195301D01*
X0134417Y0196115D01*
X0135964Y0197663D01*
X0137985Y0198500D01*
X0140174Y0198500D01*
X0142195Y0197663D01*
X0143742Y0196115D01*
X0144080Y0195301D01*
X0144417Y0196115D01*
X0145964Y0197663D01*
X0147985Y0198500D01*
X0150174Y0198500D01*
X0152195Y0197663D01*
X0153742Y0196115D01*
X0154080Y0195301D01*
X0154417Y0196115D01*
X0155964Y0197663D01*
X0157985Y0198500D01*
X0160174Y0198500D01*
X0162195Y0197663D01*
X0163742Y0196115D01*
X0164080Y0195301D01*
X0164417Y0196115D01*
X0165964Y0197663D01*
X0167985Y0198500D01*
X0170174Y0198500D01*
X0172195Y0197663D01*
X0173742Y0196115D01*
X0174580Y0194094D01*
X0174580Y0191906D01*
X0173742Y0189884D01*
X0172195Y0188337D01*
X0170174Y0187500D01*
X0167985Y0187500D01*
X0165964Y0188337D01*
X0164417Y0189884D01*
X0164080Y0190699D01*
X0163742Y0189884D01*
X0162195Y0188337D01*
X0160174Y0187500D01*
X0157985Y0187500D01*
X0155964Y0188337D01*
X0154417Y0189884D01*
X0154080Y0190699D01*
X0153742Y0189884D01*
X0152195Y0188337D01*
X0150174Y0187500D01*
X0147985Y0187500D01*
X0145964Y0188337D01*
X0144417Y0189884D01*
X0144080Y0190699D01*
X0143742Y0189884D01*
X0142195Y0188337D01*
X0140174Y0187500D01*
X0137985Y0187500D01*
X0135964Y0188337D01*
X0134417Y0189884D01*
X0134080Y0190699D01*
X0133742Y0189884D01*
X0132195Y0188337D01*
X0130174Y0187500D01*
X0127985Y0187500D01*
X0125964Y0188337D01*
X0124417Y0189884D01*
X0124080Y0190699D01*
X0123742Y0189884D01*
X0122195Y0188337D01*
X0120174Y0187500D01*
X0117985Y0187500D01*
X0115964Y0188337D01*
X0114417Y0189884D01*
X0113979Y0190942D01*
X0113612Y0190222D01*
X0113122Y0189547D01*
X0112532Y0188957D01*
X0111857Y0188467D01*
X0111114Y0188088D01*
X0110321Y0187830D01*
X0109497Y0187700D01*
X0109264Y0187700D01*
X0109264Y0192816D01*
X0108895Y0192816D01*
X0108895Y0187700D01*
X0108662Y0187700D01*
X0107838Y0187830D01*
X0107045Y0188088D01*
X0106302Y0188467D01*
X0105627Y0188957D01*
X0105037Y0189547D01*
X0104547Y0190222D01*
X0104180Y0190942D01*
X0103742Y0189884D01*
X0102195Y0188337D01*
X0100174Y0187500D01*
X0097985Y0187500D01*
X0095964Y0188337D01*
X0094417Y0189884D01*
X0094080Y0190699D01*
X0093742Y0189884D01*
X0092195Y0188337D01*
X0090174Y0187500D01*
X0087985Y0187500D01*
X0087280Y0187792D01*
X0087280Y0135036D01*
X0088815Y0133500D01*
X0129277Y0133500D01*
X0130196Y0133119D01*
X0130899Y0132416D01*
X0131899Y0131416D01*
X0132223Y0130635D01*
X0132823Y0130034D01*
X0133370Y0128714D01*
X0133370Y0127286D01*
X0132823Y0125966D01*
X0131813Y0124956D01*
X0130494Y0124409D01*
X0129065Y0124409D01*
X0127746Y0124956D01*
X0126736Y0125966D01*
X0126189Y0127286D01*
X0126189Y0128500D01*
X0087282Y0128500D01*
X0087280Y0128501D01*
X0087280Y0075036D01*
X0087815Y0074500D01*
X0136281Y0074500D01*
X0136280Y0074503D01*
X0136280Y0085497D01*
X0136660Y0086416D01*
X0137363Y0087119D01*
X0138363Y0088119D01*
X0139282Y0088500D01*
X0143277Y0088500D01*
X0144196Y0088119D01*
X0145815Y0086500D01*
X0146280Y0086500D01*
X0146280Y0106500D01*
X0127282Y0106500D01*
X0126363Y0106881D01*
X0125363Y0107881D01*
X0124660Y0108584D01*
X0124280Y0109503D01*
X0124280Y0114497D01*
X0124660Y0115416D01*
X0125660Y0116416D01*
X0126363Y0117119D01*
X0127189Y0117461D01*
X0127189Y0117714D01*
X0127736Y0119034D01*
X0128746Y0120044D01*
X0130065Y0120591D01*
X0131494Y0120591D01*
X0132813Y0120044D01*
X0133823Y0119034D01*
X0134370Y0117714D01*
X0134370Y0116500D01*
X0144280Y0116500D01*
X0144280Y0127735D01*
X0143494Y0127409D01*
X0142065Y0127409D01*
X0140746Y0127956D01*
X0139736Y0128966D01*
X0139189Y0130286D01*
X0139189Y0131714D01*
X0139736Y0133034D01*
X0140746Y0134044D01*
X0142065Y0134591D01*
X0143494Y0134591D01*
X0144280Y0134265D01*
X0144280Y0147964D01*
X0143744Y0148500D01*
X0140357Y0148500D01*
X0139813Y0147956D01*
X0138494Y0147409D01*
X0137065Y0147409D01*
X0135746Y0147956D01*
X0134736Y0148966D01*
X0134189Y0150286D01*
X0134189Y0151714D01*
X0134736Y0153034D01*
X0135746Y0154044D01*
X0137065Y0154591D01*
X0138494Y0154591D01*
X0139813Y0154044D01*
X0140357Y0153500D01*
X0145277Y0153500D01*
X0146196Y0153119D01*
X0146899Y0152416D01*
X0148899Y0150416D01*
X0149280Y0149497D01*
X0149280Y0130036D01*
X0150660Y0131416D01*
X0151363Y0132119D01*
X0152282Y0132500D01*
X0154281Y0132500D01*
X0154660Y0133416D01*
X0156660Y0135416D01*
X0157363Y0136119D01*
X0158282Y0136500D01*
X0166277Y0136500D01*
X0167196Y0136119D01*
X0167899Y0135416D01*
X0167899Y0135416D01*
X0168815Y0134500D01*
X0197280Y0134500D01*
X0197280Y0160964D01*
X0196660Y0161584D01*
X0196280Y0162503D01*
X0196280Y0171497D01*
X0196660Y0172416D01*
X0199660Y0175416D01*
X0200363Y0176119D01*
X0200730Y0176271D01*
X0200280Y0176722D01*
X0197558Y0174000D01*
X0193001Y0174000D01*
X0190280Y0176722D01*
X0187558Y0174000D01*
X0183001Y0174000D01*
X0179780Y0177222D01*
X0179780Y0181778D01*
X0183001Y0185000D01*
X0187558Y0185000D01*
X0190280Y0182278D01*
X0193001Y0185000D01*
X0197558Y0185000D01*
X0200280Y0182278D01*
X0203001Y0185000D01*
X0207558Y0185000D01*
X0210280Y0182278D01*
X0213001Y0185000D01*
X0217558Y0185000D01*
X0220280Y0182278D01*
X0223001Y0185000D01*
X0227558Y0185000D01*
X0230280Y0182278D01*
X0233001Y0185000D01*
X0237558Y0185000D01*
X0240189Y0182369D01*
X0240189Y0182714D01*
X0240736Y0184034D01*
X0241746Y0185044D01*
X0243065Y0185591D01*
X0244494Y0185591D01*
X0245813Y0185044D01*
X0246823Y0184034D01*
X0247370Y0182714D01*
X0247370Y0181286D01*
X0246823Y0179966D01*
X0246280Y0179422D01*
X0246280Y0169503D01*
X0245899Y0168584D01*
X0245196Y0167881D01*
X0245196Y0167881D01*
X0243899Y0166584D01*
X0243899Y0166584D01*
X0243196Y0165881D01*
X0242277Y0165500D01*
X0212278Y0165500D01*
X0211899Y0164584D01*
X0210280Y0162964D01*
X0210280Y0129036D01*
X0210815Y0128500D01*
X0212202Y0128500D01*
X0212746Y0129044D01*
X0214065Y0129591D01*
X0215494Y0129591D01*
X0216813Y0129044D01*
X0217823Y0128034D01*
X0218207Y0127108D01*
X0218899Y0126416D01*
X0219280Y0125497D01*
X0219280Y0079578D01*
X0219823Y0079034D01*
X0220370Y0077714D01*
X0220370Y0076286D01*
X0219823Y0074966D01*
X0219357Y0074500D01*
X0249277Y0074500D01*
X0250196Y0074119D01*
X0253899Y0070416D01*
X0254280Y0069497D01*
X0254280Y0066000D01*
X0257851Y0066000D01*
X0260780Y0063071D01*
X0260780Y0058929D01*
X0260908Y0058800D01*
X0260651Y0058800D01*
X0260780Y0058929D01*
X0260780Y0063071D01*
X0263708Y0066000D01*
X0267851Y0066000D01*
X0270780Y0063071D01*
X0270780Y0058929D01*
X0267851Y0056000D01*
X0267739Y0056000D01*
X0267739Y0056000D01*
X0267851Y0056000D01*
X0270780Y0053071D01*
X0270780Y0048929D01*
X0267851Y0046000D01*
X0263708Y0046000D01*
X0261508Y0048200D01*
X0260051Y0048200D01*
X0258580Y0046729D01*
X0258580Y0043443D01*
X0258153Y0042414D01*
X0255366Y0039626D01*
X0254336Y0039200D01*
X0157939Y0039200D01*
X0157580Y0038840D01*
X0157580Y0036876D01*
X0158095Y0036663D01*
X0159642Y0035115D01*
X0160080Y0034058D01*
X0160447Y0034778D01*
X0160937Y0035453D01*
X0161527Y0036043D01*
X0162202Y0036533D01*
X0162945Y0036912D01*
X0163738Y0037169D01*
X0164562Y0037300D01*
X0164795Y0037300D01*
X0164795Y0032184D01*
X0165164Y0032184D01*
X0170280Y0032184D01*
X0174795Y0032184D01*
X0174795Y0031816D01*
X0165164Y0031816D01*
X0165164Y0032184D01*
X0165164Y0037300D01*
X0165397Y0037300D01*
X0166221Y0037169D01*
X0167014Y0036912D01*
X0167757Y0036533D01*
X0168432Y0036043D01*
X0169022Y0035453D01*
X0169512Y0034778D01*
X0169891Y0034034D01*
X0169980Y0033763D01*
X0170068Y0034034D01*
X0170447Y0034778D01*
X0170937Y0035453D01*
X0171527Y0036043D01*
X0172202Y0036533D01*
X0172945Y0036912D01*
X0173738Y0037169D01*
X0174562Y0037300D01*
X0174795Y0037300D01*
X0174795Y0032184D01*
X0175164Y0032184D01*
X0175164Y0037300D01*
X0175397Y0037300D01*
X0176221Y0037169D01*
X0177014Y0036912D01*
X0177757Y0036533D01*
X0178432Y0036043D01*
X0179022Y0035453D01*
X0179512Y0034778D01*
X0179879Y0034058D01*
X0180317Y0035115D01*
X0181864Y0036663D01*
X0183885Y0037500D01*
X0186074Y0037500D01*
X0188095Y0036663D01*
X0189642Y0035115D01*
X0190480Y0033094D01*
X0190480Y0030906D01*
X0189642Y0028884D01*
X0188095Y0027337D01*
X0186074Y0026500D01*
X0183885Y0026500D01*
X0181864Y0027337D01*
X0180317Y0028884D01*
X0179879Y0029942D01*
X0179512Y0029222D01*
X0179022Y0028547D01*
X0178432Y0027957D01*
X0177757Y0027467D01*
X0177014Y0027088D01*
X0176221Y0026830D01*
X0175397Y0026700D01*
X0175164Y0026700D01*
X0175164Y0031816D01*
X0174795Y0031816D01*
X0174795Y0026700D01*
X0174562Y0026700D01*
X0173738Y0026830D01*
X0172945Y0027088D01*
X0172202Y0027467D01*
X0171527Y0027957D01*
X0170937Y0028547D01*
X0170447Y0029222D01*
X0170068Y0029966D01*
X0169980Y0030237D01*
X0169891Y0029966D01*
X0169512Y0029222D01*
X0169022Y0028547D01*
X0168432Y0027957D01*
X0167757Y0027467D01*
X0167014Y0027088D01*
X0166221Y0026830D01*
X0165397Y0026700D01*
X0165164Y0026700D01*
X0165164Y0031816D01*
X0164795Y0031816D01*
X0164795Y0026700D01*
X0164562Y0026700D01*
X0163738Y0026830D01*
X0162945Y0027088D01*
X0162202Y0027467D01*
X0161527Y0027957D01*
X0160937Y0028547D01*
X0160447Y0029222D01*
X0160080Y0029942D01*
X0159642Y0028884D01*
X0158095Y0027337D01*
X0157780Y0027207D01*
X0157780Y0025643D01*
X0157353Y0024614D01*
X0156039Y0023300D01*
X0157195Y0023300D01*
X0160141Y0020354D01*
X0162888Y0023100D01*
X0164816Y0023100D01*
X0164816Y0018184D01*
X0165184Y0018184D01*
X0165184Y0023100D01*
X0167112Y0023100D01*
X0170000Y0020212D01*
X0172888Y0023100D01*
X0174816Y0023100D01*
X0174816Y0018184D01*
X0174816Y0017816D01*
X0175184Y0017816D01*
X0175184Y0012900D01*
X0177112Y0012900D01*
X0179859Y0015646D01*
X0182805Y0012700D01*
X0187195Y0012700D01*
X0190300Y0015805D01*
X0190300Y0020195D01*
X0187195Y0023300D01*
X0182805Y0023300D01*
X0179859Y0020354D01*
X0177112Y0023100D01*
X0175184Y0023100D01*
X0175184Y0018184D01*
X0174816Y0018184D01*
X0169900Y0018184D01*
X0165184Y0018184D01*
X0165184Y0017816D01*
X0165184Y0012900D01*
X0167112Y0012900D01*
X0170000Y0015788D01*
X0172888Y0012900D01*
X0174816Y0012900D01*
X0174816Y0017816D01*
X0165184Y0017816D01*
X0164816Y0017816D01*
X0164816Y0012900D01*
X0162888Y0012900D01*
X0160141Y0015646D01*
X0157195Y0012700D01*
X0152805Y0012700D01*
X0150000Y0015505D01*
X0147195Y0012700D01*
X0142805Y0012700D01*
X0140000Y0015505D01*
X0137195Y0012700D01*
X0132805Y0012700D01*
X0130000Y0015505D01*
X0127195Y0012700D01*
X0122805Y0012700D01*
X0120000Y0015505D01*
X0117195Y0012700D01*
X0112805Y0012700D01*
X0109700Y0015805D01*
X0109700Y0020195D01*
X0110705Y0021200D01*
X0082223Y0021200D01*
X0081193Y0021626D01*
X0079193Y0023626D01*
X0078406Y0024414D01*
X0078119Y0025107D01*
X0078061Y0025131D01*
X0076710Y0026481D01*
X0075980Y0028245D01*
X0075980Y0035755D01*
X0076710Y0037519D01*
X0078061Y0038869D01*
X0079825Y0039600D01*
X0081734Y0039600D01*
X0083498Y0038869D01*
X0084849Y0037519D01*
X0085580Y0035755D01*
X0085580Y0028245D01*
X0084981Y0026800D01*
X0086578Y0026800D01*
X0085980Y0028245D01*
X0085980Y0035755D01*
X0086710Y0037519D01*
X0088061Y0038869D01*
X0089825Y0039600D01*
X0091734Y0039600D01*
X0093498Y0038869D01*
X0094849Y0037519D01*
X0095580Y0035755D01*
X0095580Y0028245D01*
X0094981Y0026800D01*
X0096578Y0026800D01*
X0095980Y0028245D01*
X0095980Y0035755D01*
X0096710Y0037519D01*
X0098061Y0038869D01*
X0099825Y0039600D01*
X0101734Y0039600D01*
X0103498Y0038869D01*
X0104849Y0037519D01*
X0105580Y0035755D01*
X0105580Y0028245D01*
X0104981Y0026800D01*
X0113161Y0026800D01*
X0111864Y0027337D01*
X0110317Y0028884D01*
X0109480Y0030906D01*
X0109480Y0033094D01*
X0110317Y0035115D01*
X0111864Y0036663D01*
X0113885Y0037500D01*
X0116074Y0037500D01*
X0118095Y0036663D01*
X0119642Y0035115D01*
X0119980Y0034301D01*
X0120317Y0035115D01*
X0121864Y0036663D01*
X0123885Y0037500D01*
X0126074Y0037500D01*
X0128095Y0036663D01*
X0129642Y0035115D01*
X0129980Y0034301D01*
X0130317Y0035115D01*
X0131864Y0036663D01*
X0133885Y0037500D01*
X0136074Y0037500D01*
X0137980Y0036710D01*
X0137980Y0046129D01*
X0137851Y0046000D01*
X0133708Y0046000D01*
X0130780Y0048929D01*
X0130780Y0053071D01*
X0133708Y0056000D01*
X0137851Y0056000D01*
X0140780Y0058929D01*
X0141293Y0058415D01*
X0141193Y0058374D01*
X0139193Y0056374D01*
X0138406Y0055586D01*
X0138364Y0055486D01*
X0137851Y0056000D01*
X0133708Y0056000D01*
X0130780Y0058929D01*
X0130780Y0063071D01*
X0133708Y0066000D01*
X0137851Y0066000D01*
X0140780Y0063071D01*
X0140780Y0058929D01*
X0140780Y0063071D01*
X0143708Y0066000D01*
X0147851Y0066000D01*
X0150780Y0063071D01*
X0150780Y0058929D01*
X0150908Y0058800D01*
X0150651Y0058800D01*
X0150780Y0058929D01*
X0150780Y0063071D01*
X0153708Y0066000D01*
X0157851Y0066000D01*
X0160780Y0063071D01*
X0160780Y0058929D01*
X0160908Y0058800D01*
X0160651Y0058800D01*
X0160780Y0058929D01*
X0160780Y0063071D01*
X0163708Y0066000D01*
X0167851Y0066000D01*
X0170780Y0063071D01*
X0170780Y0058929D01*
X0170908Y0058800D01*
X0170651Y0058800D01*
X0170780Y0058929D01*
X0170780Y0063071D01*
X0173708Y0066000D01*
X0177851Y0066000D01*
X0180780Y0063071D01*
X0180780Y0058929D01*
X0180908Y0058800D01*
X0180651Y0058800D01*
X0180780Y0058929D01*
X0180780Y0063071D01*
X0183708Y0066000D01*
X0187851Y0066000D01*
X0190780Y0063071D01*
X0190780Y0058929D01*
X0190908Y0058800D01*
X0190651Y0058800D01*
X0190780Y0058929D01*
X0190780Y0063071D01*
X0193708Y0066000D01*
X0197851Y0066000D01*
X0200780Y0063071D01*
X0200780Y0058929D01*
X0200908Y0058800D01*
X0200651Y0058800D01*
X0200780Y0058929D01*
X0200780Y0063071D01*
X0203708Y0066000D01*
X0207851Y0066000D01*
X0210780Y0063071D01*
X0210780Y0058929D01*
X0210908Y0058800D01*
X0210651Y0058800D01*
X0210780Y0058929D01*
X0210780Y0063071D01*
X0213708Y0066000D01*
X0217851Y0066000D01*
X0220780Y0063071D01*
X0220780Y0058929D01*
X0220908Y0058800D01*
X0220651Y0058800D01*
X0220780Y0058929D01*
X0220780Y0063071D01*
X0223708Y0066000D01*
X0227851Y0066000D01*
X0230780Y0063071D01*
X0230780Y0058929D01*
X0230908Y0058800D01*
X0230651Y0058800D01*
X0230780Y0058929D01*
X0230780Y0063071D01*
X0233708Y0066000D01*
X0237851Y0066000D01*
X0240780Y0063071D01*
X0240780Y0058929D01*
X0240908Y0058800D01*
X0240651Y0058800D01*
X0240780Y0058929D01*
X0240780Y0063071D01*
X0243708Y0066000D01*
X0247280Y0066000D01*
X0247280Y0066964D01*
X0246744Y0067500D01*
X0085282Y0067500D01*
X0084363Y0067881D01*
X0083660Y0068584D01*
X0083660Y0068584D01*
X0081363Y0070881D01*
X0081363Y0070881D01*
X0080660Y0071584D01*
X0080280Y0072503D01*
X0080280Y0187544D01*
X0080174Y0187500D01*
X0077985Y0187500D01*
X0075964Y0188337D01*
X0074417Y0189884D01*
X0073580Y0192595D02*
X0065780Y0192595D01*
X0065780Y0194193D02*
X0073621Y0194193D01*
X0074283Y0195792D02*
X0065780Y0195792D01*
X0065780Y0197390D02*
X0075691Y0197390D01*
X0082468Y0197390D02*
X0085691Y0197390D01*
X0084283Y0195792D02*
X0083876Y0195792D01*
X0092468Y0197390D02*
X0095691Y0197390D01*
X0094283Y0195792D02*
X0093876Y0195792D01*
X0102468Y0197390D02*
X0106105Y0197390D01*
X0104557Y0195792D02*
X0103876Y0195792D01*
X0108895Y0195792D02*
X0109264Y0195792D01*
X0109264Y0197390D02*
X0108895Y0197390D01*
X0112054Y0197390D02*
X0115691Y0197390D01*
X0114283Y0195792D02*
X0113602Y0195792D01*
X0109264Y0194193D02*
X0108895Y0194193D01*
X0108895Y0192595D02*
X0109264Y0192595D01*
X0109264Y0190996D02*
X0108895Y0190996D01*
X0108895Y0189398D02*
X0109264Y0189398D01*
X0109264Y0187799D02*
X0108895Y0187799D01*
X0108037Y0187799D02*
X0100895Y0187799D01*
X0103255Y0189398D02*
X0105187Y0189398D01*
X0110122Y0187799D02*
X0117264Y0187799D01*
X0114904Y0189398D02*
X0112972Y0189398D01*
X0120895Y0187799D02*
X0127264Y0187799D01*
X0124904Y0189398D02*
X0123255Y0189398D01*
X0130895Y0187799D02*
X0137264Y0187799D01*
X0134904Y0189398D02*
X0133255Y0189398D01*
X0140895Y0187799D02*
X0147264Y0187799D01*
X0144904Y0189398D02*
X0143255Y0189398D01*
X0150895Y0187799D02*
X0157264Y0187799D01*
X0154904Y0189398D02*
X0153255Y0189398D01*
X0160895Y0187799D02*
X0167264Y0187799D01*
X0164904Y0189398D02*
X0163255Y0189398D01*
X0170895Y0187799D02*
X0183264Y0187799D01*
X0183985Y0187500D02*
X0186174Y0187500D01*
X0188195Y0188337D01*
X0189742Y0189884D01*
X0190080Y0190699D01*
X0190417Y0189884D01*
X0191964Y0188337D01*
X0193985Y0187500D01*
X0196174Y0187500D01*
X0198195Y0188337D01*
X0199742Y0189884D01*
X0200080Y0190699D01*
X0200417Y0189884D01*
X0201964Y0188337D01*
X0203985Y0187500D01*
X0206174Y0187500D01*
X0208195Y0188337D01*
X0209742Y0189884D01*
X0210080Y0190699D01*
X0210417Y0189884D01*
X0211964Y0188337D01*
X0213985Y0187500D01*
X0216174Y0187500D01*
X0218195Y0188337D01*
X0219742Y0189884D01*
X0220080Y0190699D01*
X0220417Y0189884D01*
X0221964Y0188337D01*
X0223985Y0187500D01*
X0226174Y0187500D01*
X0228195Y0188337D01*
X0229742Y0189884D01*
X0230080Y0190699D01*
X0230417Y0189884D01*
X0231964Y0188337D01*
X0233985Y0187500D01*
X0236174Y0187500D01*
X0238195Y0188337D01*
X0239742Y0189884D01*
X0240080Y0190699D01*
X0240417Y0189884D01*
X0241964Y0188337D01*
X0243985Y0187500D01*
X0246174Y0187500D01*
X0248195Y0188337D01*
X0249742Y0189884D01*
X0250080Y0190699D01*
X0250417Y0189884D01*
X0251964Y0188337D01*
X0253985Y0187500D01*
X0256174Y0187500D01*
X0258195Y0188337D01*
X0259742Y0189884D01*
X0260580Y0191906D01*
X0260580Y0194094D01*
X0259742Y0196115D01*
X0258195Y0197663D01*
X0256174Y0198500D01*
X0253985Y0198500D01*
X0251964Y0197663D01*
X0250417Y0196115D01*
X0250080Y0195301D01*
X0249742Y0196115D01*
X0248195Y0197663D01*
X0246174Y0198500D01*
X0243985Y0198500D01*
X0241964Y0197663D01*
X0240417Y0196115D01*
X0240080Y0195301D01*
X0239742Y0196115D01*
X0238195Y0197663D01*
X0236174Y0198500D01*
X0233985Y0198500D01*
X0231964Y0197663D01*
X0230417Y0196115D01*
X0230080Y0195301D01*
X0229742Y0196115D01*
X0228195Y0197663D01*
X0226174Y0198500D01*
X0223985Y0198500D01*
X0221964Y0197663D01*
X0220417Y0196115D01*
X0220080Y0195301D01*
X0219742Y0196115D01*
X0218195Y0197663D01*
X0216174Y0198500D01*
X0213985Y0198500D01*
X0211964Y0197663D01*
X0210417Y0196115D01*
X0210080Y0195301D01*
X0209742Y0196115D01*
X0208195Y0197663D01*
X0206174Y0198500D01*
X0203985Y0198500D01*
X0201964Y0197663D01*
X0200417Y0196115D01*
X0200080Y0195301D01*
X0199742Y0196115D01*
X0198195Y0197663D01*
X0196174Y0198500D01*
X0193985Y0198500D01*
X0191964Y0197663D01*
X0190417Y0196115D01*
X0190080Y0195301D01*
X0189742Y0196115D01*
X0188195Y0197663D01*
X0186174Y0198500D01*
X0183985Y0198500D01*
X0181964Y0197663D01*
X0180417Y0196115D01*
X0179580Y0194094D01*
X0179580Y0191906D01*
X0180417Y0189884D01*
X0181964Y0188337D01*
X0183985Y0187500D01*
X0186895Y0187799D02*
X0193264Y0187799D01*
X0190904Y0189398D02*
X0189255Y0189398D01*
X0196895Y0187799D02*
X0203264Y0187799D01*
X0200904Y0189398D02*
X0199255Y0189398D01*
X0206895Y0187799D02*
X0213264Y0187799D01*
X0210904Y0189398D02*
X0209255Y0189398D01*
X0216895Y0187799D02*
X0223264Y0187799D01*
X0220904Y0189398D02*
X0219255Y0189398D01*
X0226895Y0187799D02*
X0233264Y0187799D01*
X0230904Y0189398D02*
X0229255Y0189398D01*
X0236895Y0187799D02*
X0243264Y0187799D01*
X0240904Y0189398D02*
X0239255Y0189398D01*
X0237956Y0184602D02*
X0241304Y0184602D01*
X0240309Y0183003D02*
X0239554Y0183003D01*
X0246255Y0184602D02*
X0275220Y0184602D01*
X0275220Y0186201D02*
X0087280Y0186201D01*
X0087280Y0184602D02*
X0182603Y0184602D01*
X0181005Y0183003D02*
X0087280Y0183003D01*
X0087280Y0181405D02*
X0179780Y0181405D01*
X0179780Y0179806D02*
X0087280Y0179806D01*
X0087280Y0178208D02*
X0179780Y0178208D01*
X0180392Y0176609D02*
X0087280Y0176609D01*
X0087280Y0175011D02*
X0181990Y0175011D01*
X0188569Y0175011D02*
X0191990Y0175011D01*
X0190392Y0176609D02*
X0190167Y0176609D01*
X0196411Y0171814D02*
X0087280Y0171814D01*
X0087280Y0173412D02*
X0197656Y0173412D01*
X0198569Y0175011D02*
X0199255Y0175011D01*
X0200167Y0176609D02*
X0200392Y0176609D01*
X0201005Y0183003D02*
X0199554Y0183003D01*
X0197956Y0184602D02*
X0202603Y0184602D01*
X0207956Y0184602D02*
X0212603Y0184602D01*
X0211005Y0183003D02*
X0209554Y0183003D01*
X0217956Y0184602D02*
X0222603Y0184602D01*
X0221005Y0183003D02*
X0219554Y0183003D01*
X0227956Y0184602D02*
X0232603Y0184602D01*
X0231005Y0183003D02*
X0229554Y0183003D01*
X0246280Y0178208D02*
X0275220Y0178208D01*
X0275220Y0179806D02*
X0246664Y0179806D01*
X0247370Y0181405D02*
X0275220Y0181405D01*
X0275220Y0183003D02*
X0247250Y0183003D01*
X0246895Y0187799D02*
X0253264Y0187799D01*
X0250904Y0189398D02*
X0249255Y0189398D01*
X0256895Y0187799D02*
X0275220Y0187799D01*
X0275220Y0189398D02*
X0259255Y0189398D01*
X0260203Y0190996D02*
X0275220Y0190996D01*
X0275220Y0192595D02*
X0260580Y0192595D01*
X0260538Y0194193D02*
X0275220Y0194193D01*
X0275220Y0195792D02*
X0259876Y0195792D01*
X0258468Y0197390D02*
X0275220Y0197390D01*
X0275220Y0197594D02*
X0275220Y0028405D01*
X0272207Y0028405D01*
X0269301Y0027202D01*
X0267078Y0024978D01*
X0265874Y0022073D01*
X0265874Y0018927D01*
X0267078Y0016022D01*
X0269301Y0013798D01*
X0272207Y0012594D01*
X0275220Y0012594D01*
X0275220Y0010000D01*
X0075591Y0010000D01*
X0074056Y0010121D01*
X0071136Y0011069D01*
X0068653Y0012874D01*
X0066849Y0015357D01*
X0065900Y0018276D01*
X0065780Y0019811D01*
X0065780Y0204131D01*
X0065940Y0205723D01*
X0066880Y0208798D01*
X0068584Y0211525D01*
X0070937Y0213719D01*
X0073776Y0215229D01*
X0076910Y0215952D01*
X0078481Y0216000D01*
X0078555Y0216000D01*
X0079349Y0215972D01*
X0079378Y0216000D01*
X0275220Y0216000D01*
X0275220Y0213405D01*
X0272207Y0213405D01*
X0269301Y0212202D01*
X0267078Y0209978D01*
X0265874Y0207073D01*
X0265874Y0203927D01*
X0267078Y0201022D01*
X0269301Y0198798D01*
X0272207Y0197594D01*
X0275220Y0197594D01*
X0269111Y0198989D02*
X0065780Y0198989D01*
X0065780Y0200587D02*
X0267512Y0200587D01*
X0266596Y0202186D02*
X0065780Y0202186D01*
X0065780Y0203784D02*
X0075721Y0203784D01*
X0076805Y0202700D02*
X0081195Y0202700D01*
X0084000Y0205505D01*
X0086805Y0202700D01*
X0091195Y0202700D01*
X0094000Y0205505D01*
X0096805Y0202700D01*
X0101195Y0202700D01*
X0104141Y0205646D01*
X0106888Y0202900D01*
X0108816Y0202900D01*
X0108816Y0207816D01*
X0109184Y0207816D01*
X0109184Y0202900D01*
X0111112Y0202900D01*
X0113859Y0205646D01*
X0116805Y0202700D01*
X0121195Y0202700D01*
X0124000Y0205505D01*
X0126805Y0202700D01*
X0131195Y0202700D01*
X0134000Y0205505D01*
X0136805Y0202700D01*
X0141195Y0202700D01*
X0144000Y0205505D01*
X0146805Y0202700D01*
X0151195Y0202700D01*
X0154000Y0205505D01*
X0156805Y0202700D01*
X0161195Y0202700D01*
X0164000Y0205505D01*
X0166805Y0202700D01*
X0171195Y0202700D01*
X0174300Y0205805D01*
X0174300Y0210195D01*
X0171195Y0213300D01*
X0166805Y0213300D01*
X0164000Y0210495D01*
X0161195Y0213300D01*
X0156805Y0213300D01*
X0154000Y0210495D01*
X0151195Y0213300D01*
X0146805Y0213300D01*
X0144000Y0210495D01*
X0141195Y0213300D01*
X0136805Y0213300D01*
X0134000Y0210495D01*
X0131195Y0213300D01*
X0126805Y0213300D01*
X0124000Y0210495D01*
X0121195Y0213300D01*
X0116805Y0213300D01*
X0113859Y0210354D01*
X0111112Y0213100D01*
X0109184Y0213100D01*
X0109184Y0208184D01*
X0108816Y0208184D01*
X0108816Y0213100D01*
X0106888Y0213100D01*
X0104141Y0210354D01*
X0101195Y0213300D01*
X0096805Y0213300D01*
X0094000Y0210495D01*
X0091195Y0213300D01*
X0086805Y0213300D01*
X0084000Y0210495D01*
X0081195Y0213300D01*
X0076805Y0213300D01*
X0073700Y0210195D01*
X0073700Y0205805D01*
X0076805Y0202700D01*
X0074122Y0205383D02*
X0065906Y0205383D01*
X0066325Y0206981D02*
X0073700Y0206981D01*
X0073700Y0208580D02*
X0066813Y0208580D01*
X0067743Y0210178D02*
X0073700Y0210178D01*
X0075281Y0211777D02*
X0068854Y0211777D01*
X0070568Y0213375D02*
X0272134Y0213375D01*
X0275220Y0214974D02*
X0073297Y0214974D01*
X0082719Y0211777D02*
X0085281Y0211777D01*
X0092719Y0211777D02*
X0095281Y0211777D01*
X0102719Y0211777D02*
X0105564Y0211777D01*
X0108816Y0211777D02*
X0109184Y0211777D01*
X0109184Y0210178D02*
X0108816Y0210178D01*
X0108816Y0208580D02*
X0109184Y0208580D01*
X0109184Y0206981D02*
X0108816Y0206981D01*
X0108816Y0205383D02*
X0109184Y0205383D01*
X0109184Y0203784D02*
X0108816Y0203784D01*
X0106003Y0203784D02*
X0102279Y0203784D01*
X0103878Y0205383D02*
X0104405Y0205383D01*
X0111997Y0203784D02*
X0115721Y0203784D01*
X0114122Y0205383D02*
X0113595Y0205383D01*
X0122279Y0203784D02*
X0125721Y0203784D01*
X0124122Y0205383D02*
X0123878Y0205383D01*
X0132279Y0203784D02*
X0135721Y0203784D01*
X0134122Y0205383D02*
X0133878Y0205383D01*
X0142279Y0203784D02*
X0145721Y0203784D01*
X0144122Y0205383D02*
X0143878Y0205383D01*
X0152279Y0203784D02*
X0155721Y0203784D01*
X0154122Y0205383D02*
X0153878Y0205383D01*
X0162279Y0203784D02*
X0165721Y0203784D01*
X0164122Y0205383D02*
X0163878Y0205383D01*
X0172279Y0203784D02*
X0181721Y0203784D01*
X0182805Y0202700D02*
X0187195Y0202700D01*
X0190000Y0205505D01*
X0192805Y0202700D01*
X0197195Y0202700D01*
X0200000Y0205505D01*
X0202805Y0202700D01*
X0207195Y0202700D01*
X0210000Y0205505D01*
X0212805Y0202700D01*
X0217195Y0202700D01*
X0220000Y0205505D01*
X0222805Y0202700D01*
X0227195Y0202700D01*
X0230000Y0205505D01*
X0232805Y0202700D01*
X0237195Y0202700D01*
X0240000Y0205505D01*
X0242805Y0202700D01*
X0247195Y0202700D01*
X0250000Y0205505D01*
X0252805Y0202700D01*
X0257195Y0202700D01*
X0260300Y0205805D01*
X0260300Y0210195D01*
X0257195Y0213300D01*
X0252805Y0213300D01*
X0250000Y0210495D01*
X0247195Y0213300D01*
X0242805Y0213300D01*
X0240000Y0210495D01*
X0237195Y0213300D01*
X0232805Y0213300D01*
X0230000Y0210495D01*
X0227195Y0213300D01*
X0222805Y0213300D01*
X0220000Y0210495D01*
X0217195Y0213300D01*
X0212805Y0213300D01*
X0210000Y0210495D01*
X0207195Y0213300D01*
X0202805Y0213300D01*
X0200000Y0210495D01*
X0197195Y0213300D01*
X0192805Y0213300D01*
X0190000Y0210495D01*
X0187195Y0213300D01*
X0182805Y0213300D01*
X0179700Y0210195D01*
X0179700Y0205805D01*
X0182805Y0202700D01*
X0180122Y0205383D02*
X0173878Y0205383D01*
X0174300Y0206981D02*
X0179700Y0206981D01*
X0179700Y0208580D02*
X0174300Y0208580D01*
X0174300Y0210178D02*
X0179700Y0210178D01*
X0181281Y0211777D02*
X0172719Y0211777D01*
X0165281Y0211777D02*
X0162719Y0211777D01*
X0155281Y0211777D02*
X0152719Y0211777D01*
X0145281Y0211777D02*
X0142719Y0211777D01*
X0135281Y0211777D02*
X0132719Y0211777D01*
X0125281Y0211777D02*
X0122719Y0211777D01*
X0115281Y0211777D02*
X0112436Y0211777D01*
X0095721Y0203784D02*
X0092279Y0203784D01*
X0093878Y0205383D02*
X0094122Y0205383D01*
X0085721Y0203784D02*
X0082279Y0203784D01*
X0083878Y0205383D02*
X0084122Y0205383D01*
X0093255Y0189398D02*
X0094904Y0189398D01*
X0097264Y0187799D02*
X0090895Y0187799D01*
X0080280Y0186201D02*
X0065780Y0186201D01*
X0065780Y0187799D02*
X0077264Y0187799D01*
X0080280Y0184602D02*
X0065780Y0184602D01*
X0065780Y0183003D02*
X0080280Y0183003D01*
X0080280Y0181405D02*
X0065780Y0181405D01*
X0065780Y0179806D02*
X0080280Y0179806D01*
X0080280Y0178208D02*
X0065780Y0178208D01*
X0065780Y0176609D02*
X0080280Y0176609D01*
X0080280Y0175011D02*
X0065780Y0175011D01*
X0065780Y0173412D02*
X0080280Y0173412D01*
X0080280Y0171814D02*
X0065780Y0171814D01*
X0065780Y0170215D02*
X0080280Y0170215D01*
X0080280Y0168617D02*
X0065780Y0168617D01*
X0065780Y0167018D02*
X0080280Y0167018D01*
X0080280Y0165420D02*
X0065780Y0165420D01*
X0065780Y0163821D02*
X0080280Y0163821D01*
X0080280Y0162223D02*
X0065780Y0162223D01*
X0065780Y0160624D02*
X0080280Y0160624D01*
X0080280Y0159026D02*
X0065780Y0159026D01*
X0065780Y0157427D02*
X0080280Y0157427D01*
X0080280Y0155829D02*
X0065780Y0155829D01*
X0065780Y0154230D02*
X0080280Y0154230D01*
X0080280Y0152632D02*
X0065780Y0152632D01*
X0065780Y0151033D02*
X0080280Y0151033D01*
X0080280Y0149435D02*
X0065780Y0149435D01*
X0065780Y0147836D02*
X0080280Y0147836D01*
X0080280Y0146238D02*
X0065780Y0146238D01*
X0065780Y0144639D02*
X0080280Y0144639D01*
X0080280Y0143041D02*
X0065780Y0143041D01*
X0065780Y0141442D02*
X0080280Y0141442D01*
X0080280Y0139844D02*
X0065780Y0139844D01*
X0065780Y0138245D02*
X0080280Y0138245D01*
X0080280Y0136647D02*
X0065780Y0136647D01*
X0065780Y0135048D02*
X0080280Y0135048D01*
X0080280Y0133450D02*
X0065780Y0133450D01*
X0065780Y0131851D02*
X0080280Y0131851D01*
X0080280Y0130253D02*
X0065780Y0130253D01*
X0065780Y0128654D02*
X0080280Y0128654D01*
X0080280Y0127056D02*
X0065780Y0127056D01*
X0065780Y0125457D02*
X0080280Y0125457D01*
X0080280Y0123859D02*
X0065780Y0123859D01*
X0065780Y0122260D02*
X0080280Y0122260D01*
X0080280Y0120662D02*
X0065780Y0120662D01*
X0065780Y0119063D02*
X0080280Y0119063D01*
X0080280Y0117465D02*
X0065780Y0117465D01*
X0065780Y0115866D02*
X0080280Y0115866D01*
X0080280Y0114268D02*
X0065780Y0114268D01*
X0065780Y0112669D02*
X0080280Y0112669D01*
X0080280Y0111070D02*
X0065780Y0111070D01*
X0065780Y0109472D02*
X0080280Y0109472D01*
X0080280Y0107873D02*
X0065780Y0107873D01*
X0065780Y0106275D02*
X0080280Y0106275D01*
X0080280Y0104676D02*
X0065780Y0104676D01*
X0065780Y0103078D02*
X0080280Y0103078D01*
X0080280Y0101479D02*
X0065780Y0101479D01*
X0065780Y0099881D02*
X0080280Y0099881D01*
X0080280Y0098282D02*
X0065780Y0098282D01*
X0065780Y0096684D02*
X0080280Y0096684D01*
X0080280Y0095085D02*
X0065780Y0095085D01*
X0065780Y0093487D02*
X0080280Y0093487D01*
X0080280Y0091888D02*
X0065780Y0091888D01*
X0065780Y0090290D02*
X0080280Y0090290D01*
X0080280Y0088691D02*
X0065780Y0088691D01*
X0065780Y0087093D02*
X0080280Y0087093D01*
X0080280Y0085494D02*
X0065780Y0085494D01*
X0065780Y0083896D02*
X0080280Y0083896D01*
X0080280Y0082297D02*
X0065780Y0082297D01*
X0065780Y0080699D02*
X0080280Y0080699D01*
X0080280Y0079100D02*
X0065780Y0079100D01*
X0065780Y0077502D02*
X0080280Y0077502D01*
X0080280Y0075903D02*
X0065780Y0075903D01*
X0065780Y0074305D02*
X0080280Y0074305D01*
X0080280Y0072706D02*
X0065780Y0072706D01*
X0065780Y0071108D02*
X0081136Y0071108D01*
X0082735Y0069509D02*
X0065780Y0069509D01*
X0065780Y0067911D02*
X0084333Y0067911D01*
X0083708Y0066000D02*
X0080780Y0063071D01*
X0080780Y0058929D01*
X0083708Y0056000D01*
X0080780Y0053071D01*
X0080780Y0048929D01*
X0083708Y0046000D01*
X0087851Y0046000D01*
X0090780Y0048929D01*
X0093708Y0046000D01*
X0097851Y0046000D01*
X0100780Y0048929D01*
X0103708Y0046000D01*
X0107851Y0046000D01*
X0110780Y0048929D01*
X0113708Y0046000D01*
X0117851Y0046000D01*
X0120780Y0048929D01*
X0123708Y0046000D01*
X0127851Y0046000D01*
X0130780Y0048929D01*
X0130780Y0053071D01*
X0127851Y0056000D01*
X0123708Y0056000D01*
X0120780Y0053071D01*
X0120780Y0048929D01*
X0120780Y0053071D01*
X0117851Y0056000D01*
X0113708Y0056000D01*
X0110780Y0053071D01*
X0110780Y0048929D01*
X0110780Y0053071D01*
X0107851Y0056000D01*
X0103708Y0056000D01*
X0100780Y0053071D01*
X0100780Y0048929D01*
X0100780Y0053071D01*
X0097851Y0056000D01*
X0093708Y0056000D01*
X0090780Y0053071D01*
X0090780Y0048929D01*
X0090780Y0053071D01*
X0087851Y0056000D01*
X0083708Y0056000D01*
X0087851Y0056000D01*
X0090780Y0058929D01*
X0093708Y0056000D01*
X0097851Y0056000D01*
X0100780Y0058929D01*
X0103708Y0056000D01*
X0107851Y0056000D01*
X0110780Y0058929D01*
X0113708Y0056000D01*
X0117851Y0056000D01*
X0120780Y0058929D01*
X0123708Y0056000D01*
X0127851Y0056000D01*
X0130780Y0058929D01*
X0130780Y0063071D01*
X0127851Y0066000D01*
X0123708Y0066000D01*
X0120780Y0063071D01*
X0120780Y0058929D01*
X0120780Y0063071D01*
X0117851Y0066000D01*
X0113708Y0066000D01*
X0110780Y0063071D01*
X0110780Y0058929D01*
X0110780Y0063071D01*
X0107851Y0066000D01*
X0103708Y0066000D01*
X0100780Y0063071D01*
X0100780Y0058929D01*
X0100780Y0063071D01*
X0097851Y0066000D01*
X0093708Y0066000D01*
X0090780Y0063071D01*
X0090780Y0058929D01*
X0090780Y0063071D01*
X0087851Y0066000D01*
X0083708Y0066000D01*
X0082422Y0064714D02*
X0079137Y0064714D01*
X0077851Y0066000D02*
X0073708Y0066000D01*
X0070780Y0063071D01*
X0070780Y0058929D01*
X0073708Y0056000D01*
X0070780Y0053071D01*
X0070780Y0048929D01*
X0073708Y0046000D01*
X0077851Y0046000D01*
X0080780Y0048929D01*
X0080780Y0053071D01*
X0077851Y0056000D01*
X0073708Y0056000D01*
X0077851Y0056000D01*
X0080780Y0058929D01*
X0080780Y0063071D01*
X0077851Y0066000D01*
X0072422Y0064714D02*
X0065780Y0064714D01*
X0065780Y0066312D02*
X0247280Y0066312D01*
X0242422Y0064714D02*
X0239137Y0064714D01*
X0240735Y0063115D02*
X0240824Y0063115D01*
X0240780Y0061517D02*
X0240780Y0061517D01*
X0240780Y0059918D02*
X0240780Y0059918D01*
X0232422Y0064714D02*
X0229137Y0064714D01*
X0230735Y0063115D02*
X0230824Y0063115D01*
X0230780Y0061517D02*
X0230780Y0061517D01*
X0230780Y0059918D02*
X0230780Y0059918D01*
X0222422Y0064714D02*
X0219137Y0064714D01*
X0220735Y0063115D02*
X0220824Y0063115D01*
X0220780Y0061517D02*
X0220780Y0061517D01*
X0220780Y0059918D02*
X0220780Y0059918D01*
X0212422Y0064714D02*
X0209137Y0064714D01*
X0210735Y0063115D02*
X0210824Y0063115D01*
X0210780Y0061517D02*
X0210780Y0061517D01*
X0210780Y0059918D02*
X0210780Y0059918D01*
X0202422Y0064714D02*
X0199137Y0064714D01*
X0200735Y0063115D02*
X0200824Y0063115D01*
X0200780Y0061517D02*
X0200780Y0061517D01*
X0200780Y0059918D02*
X0200780Y0059918D01*
X0192422Y0064714D02*
X0189137Y0064714D01*
X0190735Y0063115D02*
X0190824Y0063115D01*
X0190780Y0061517D02*
X0190780Y0061517D01*
X0190780Y0059918D02*
X0190780Y0059918D01*
X0182422Y0064714D02*
X0179137Y0064714D01*
X0180735Y0063115D02*
X0180824Y0063115D01*
X0180780Y0061517D02*
X0180780Y0061517D01*
X0180780Y0059918D02*
X0180780Y0059918D01*
X0170780Y0059918D02*
X0170780Y0059918D01*
X0170780Y0061517D02*
X0170780Y0061517D01*
X0170735Y0063115D02*
X0170824Y0063115D01*
X0172422Y0064714D02*
X0169137Y0064714D01*
X0162422Y0064714D02*
X0159137Y0064714D01*
X0160735Y0063115D02*
X0160824Y0063115D01*
X0160780Y0061517D02*
X0160780Y0061517D01*
X0160780Y0059918D02*
X0160780Y0059918D01*
X0152422Y0064714D02*
X0149137Y0064714D01*
X0150735Y0063115D02*
X0150824Y0063115D01*
X0150780Y0061517D02*
X0150780Y0061517D01*
X0150780Y0059918D02*
X0150780Y0059918D01*
X0142780Y0056000D02*
X0140780Y0054000D01*
X0140780Y0033000D01*
X0141780Y0032000D01*
X0144980Y0032000D01*
X0149980Y0034301D02*
X0149642Y0035115D01*
X0148095Y0036663D01*
X0146074Y0037500D01*
X0143885Y0037500D01*
X0143580Y0037373D01*
X0143580Y0046129D01*
X0143708Y0046000D01*
X0147851Y0046000D01*
X0150780Y0048929D01*
X0153708Y0046000D01*
X0157851Y0046000D01*
X0160780Y0048929D01*
X0163708Y0046000D01*
X0167851Y0046000D01*
X0170780Y0048929D01*
X0173708Y0046000D01*
X0177851Y0046000D01*
X0180780Y0048929D01*
X0183708Y0046000D01*
X0187851Y0046000D01*
X0190780Y0048929D01*
X0193708Y0046000D01*
X0197851Y0046000D01*
X0200780Y0048929D01*
X0203708Y0046000D01*
X0207851Y0046000D01*
X0210780Y0048929D01*
X0213708Y0046000D01*
X0217851Y0046000D01*
X0220780Y0048929D01*
X0223708Y0046000D01*
X0227851Y0046000D01*
X0230780Y0048929D01*
X0233708Y0046000D01*
X0237851Y0046000D01*
X0240780Y0048929D01*
X0240780Y0053071D01*
X0240651Y0053200D01*
X0241191Y0053200D01*
X0240980Y0052988D01*
X0240980Y0051200D01*
X0245579Y0051200D01*
X0245579Y0050800D01*
X0240980Y0050800D01*
X0240980Y0049012D01*
X0243791Y0046200D01*
X0245580Y0046200D01*
X0245580Y0050800D01*
X0245980Y0050800D01*
X0245980Y0051200D01*
X0250580Y0051200D01*
X0250580Y0052988D01*
X0250368Y0053200D01*
X0250908Y0053200D01*
X0250780Y0053071D01*
X0250780Y0048929D01*
X0252980Y0046729D01*
X0252980Y0045160D01*
X0252620Y0044800D01*
X0156223Y0044800D01*
X0155193Y0044374D01*
X0153193Y0042374D01*
X0152406Y0041586D01*
X0151980Y0040557D01*
X0151980Y0036710D01*
X0151864Y0036663D01*
X0150317Y0035115D01*
X0149980Y0034301D01*
X0149963Y0034342D02*
X0149996Y0034342D01*
X0151142Y0035940D02*
X0148817Y0035940D01*
X0151980Y0037539D02*
X0143580Y0037539D01*
X0143580Y0039137D02*
X0151980Y0039137D01*
X0152054Y0040736D02*
X0143580Y0040736D01*
X0143580Y0042334D02*
X0153154Y0042334D01*
X0154753Y0043933D02*
X0143580Y0043933D01*
X0143580Y0045532D02*
X0252980Y0045532D01*
X0252578Y0047130D02*
X0248698Y0047130D01*
X0247768Y0046200D02*
X0250580Y0049012D01*
X0250580Y0050800D01*
X0245980Y0050800D01*
X0245980Y0046200D01*
X0247768Y0046200D01*
X0245980Y0047130D02*
X0245580Y0047130D01*
X0245580Y0048729D02*
X0245980Y0048729D01*
X0245980Y0050327D02*
X0245580Y0050327D01*
X0242861Y0047130D02*
X0238981Y0047130D01*
X0240579Y0048729D02*
X0241263Y0048729D01*
X0240980Y0050327D02*
X0240780Y0050327D01*
X0240780Y0051926D02*
X0240980Y0051926D01*
X0250580Y0051926D02*
X0250780Y0051926D01*
X0250780Y0050327D02*
X0250580Y0050327D01*
X0250296Y0048729D02*
X0250980Y0048729D01*
X0255780Y0051000D02*
X0255780Y0044000D01*
X0253780Y0042000D01*
X0156780Y0042000D01*
X0154780Y0040000D01*
X0154780Y0032200D01*
X0154980Y0032000D01*
X0154980Y0026200D01*
X0152780Y0024000D01*
X0082780Y0024000D01*
X0080780Y0026000D01*
X0080780Y0032000D01*
X0085580Y0032743D02*
X0085980Y0032743D01*
X0085980Y0031145D02*
X0085580Y0031145D01*
X0085580Y0029546D02*
X0085980Y0029546D01*
X0086103Y0027948D02*
X0085456Y0027948D01*
X0095456Y0027948D02*
X0096103Y0027948D01*
X0095980Y0029546D02*
X0095580Y0029546D01*
X0095580Y0031145D02*
X0095980Y0031145D01*
X0095980Y0032743D02*
X0095580Y0032743D01*
X0095580Y0034342D02*
X0095980Y0034342D01*
X0096056Y0035940D02*
X0095503Y0035940D01*
X0094829Y0037539D02*
X0096730Y0037539D01*
X0098708Y0039137D02*
X0092851Y0039137D01*
X0088708Y0039137D02*
X0082851Y0039137D01*
X0084829Y0037539D02*
X0086730Y0037539D01*
X0086056Y0035940D02*
X0085503Y0035940D01*
X0085580Y0034342D02*
X0085980Y0034342D01*
X0078708Y0039137D02*
X0065780Y0039137D01*
X0065780Y0037539D02*
X0076730Y0037539D01*
X0076056Y0035940D02*
X0065780Y0035940D01*
X0065780Y0034342D02*
X0075980Y0034342D01*
X0075980Y0032743D02*
X0065780Y0032743D01*
X0065780Y0031145D02*
X0075980Y0031145D01*
X0075980Y0029546D02*
X0065780Y0029546D01*
X0065780Y0027948D02*
X0076103Y0027948D01*
X0076842Y0026349D02*
X0065780Y0026349D01*
X0065780Y0024751D02*
X0078266Y0024751D01*
X0079667Y0023152D02*
X0065780Y0023152D01*
X0065780Y0021554D02*
X0081368Y0021554D01*
X0068153Y0013561D02*
X0111943Y0013561D01*
X0110345Y0015160D02*
X0066992Y0015160D01*
X0066394Y0016758D02*
X0109700Y0016758D01*
X0109700Y0018357D02*
X0065894Y0018357D01*
X0065780Y0019955D02*
X0109700Y0019955D01*
X0111253Y0027948D02*
X0105456Y0027948D01*
X0105580Y0029546D02*
X0110043Y0029546D01*
X0109480Y0031145D02*
X0105580Y0031145D01*
X0105580Y0032743D02*
X0109480Y0032743D01*
X0109996Y0034342D02*
X0105580Y0034342D01*
X0105503Y0035940D02*
X0111142Y0035940D01*
X0104829Y0037539D02*
X0137980Y0037539D01*
X0137980Y0039137D02*
X0102851Y0039137D01*
X0118817Y0035940D02*
X0121142Y0035940D01*
X0119996Y0034342D02*
X0119963Y0034342D01*
X0128817Y0035940D02*
X0131142Y0035940D01*
X0129996Y0034342D02*
X0129963Y0034342D01*
X0137980Y0040736D02*
X0065780Y0040736D01*
X0065780Y0042334D02*
X0137980Y0042334D01*
X0137980Y0043933D02*
X0065780Y0043933D01*
X0065780Y0045532D02*
X0137980Y0045532D01*
X0132578Y0047130D02*
X0128981Y0047130D01*
X0130579Y0048729D02*
X0130980Y0048729D01*
X0130780Y0050327D02*
X0130780Y0050327D01*
X0130780Y0051926D02*
X0130780Y0051926D01*
X0131233Y0053524D02*
X0130326Y0053524D01*
X0128728Y0055123D02*
X0132831Y0055123D01*
X0132987Y0056721D02*
X0128572Y0056721D01*
X0130170Y0058320D02*
X0131389Y0058320D01*
X0130780Y0059918D02*
X0130780Y0059918D01*
X0130780Y0061517D02*
X0130780Y0061517D01*
X0130735Y0063115D02*
X0130824Y0063115D01*
X0132422Y0064714D02*
X0129137Y0064714D01*
X0122422Y0064714D02*
X0119137Y0064714D01*
X0120735Y0063115D02*
X0120824Y0063115D01*
X0120780Y0061517D02*
X0120780Y0061517D01*
X0120780Y0059918D02*
X0120780Y0059918D01*
X0120170Y0058320D02*
X0121389Y0058320D01*
X0122987Y0056721D02*
X0118572Y0056721D01*
X0118728Y0055123D02*
X0122831Y0055123D01*
X0121233Y0053524D02*
X0120326Y0053524D01*
X0120780Y0051926D02*
X0120780Y0051926D01*
X0120780Y0050327D02*
X0120780Y0050327D01*
X0120579Y0048729D02*
X0120980Y0048729D01*
X0122578Y0047130D02*
X0118981Y0047130D01*
X0112578Y0047130D02*
X0108981Y0047130D01*
X0110579Y0048729D02*
X0110980Y0048729D01*
X0110780Y0050327D02*
X0110780Y0050327D01*
X0110780Y0051926D02*
X0110780Y0051926D01*
X0111233Y0053524D02*
X0110326Y0053524D01*
X0108728Y0055123D02*
X0112831Y0055123D01*
X0112987Y0056721D02*
X0108572Y0056721D01*
X0110170Y0058320D02*
X0111389Y0058320D01*
X0110780Y0059918D02*
X0110780Y0059918D01*
X0110780Y0061517D02*
X0110780Y0061517D01*
X0110735Y0063115D02*
X0110824Y0063115D01*
X0112422Y0064714D02*
X0109137Y0064714D01*
X0102422Y0064714D02*
X0099137Y0064714D01*
X0100735Y0063115D02*
X0100824Y0063115D01*
X0100780Y0061517D02*
X0100780Y0061517D01*
X0100780Y0059918D02*
X0100780Y0059918D01*
X0100170Y0058320D02*
X0101389Y0058320D01*
X0102987Y0056721D02*
X0098572Y0056721D01*
X0098728Y0055123D02*
X0102831Y0055123D01*
X0101233Y0053524D02*
X0100326Y0053524D01*
X0100780Y0051926D02*
X0100780Y0051926D01*
X0100780Y0050327D02*
X0100780Y0050327D01*
X0100579Y0048729D02*
X0100980Y0048729D01*
X0102578Y0047130D02*
X0098981Y0047130D01*
X0092578Y0047130D02*
X0088981Y0047130D01*
X0090579Y0048729D02*
X0090980Y0048729D01*
X0090780Y0050327D02*
X0090780Y0050327D01*
X0090780Y0051926D02*
X0090780Y0051926D01*
X0091233Y0053524D02*
X0090326Y0053524D01*
X0088728Y0055123D02*
X0092831Y0055123D01*
X0092987Y0056721D02*
X0088572Y0056721D01*
X0090170Y0058320D02*
X0091389Y0058320D01*
X0090780Y0059918D02*
X0090780Y0059918D01*
X0090780Y0061517D02*
X0090780Y0061517D01*
X0090735Y0063115D02*
X0090824Y0063115D01*
X0092422Y0064714D02*
X0089137Y0064714D01*
X0080824Y0063115D02*
X0080735Y0063115D01*
X0080780Y0061517D02*
X0080780Y0061517D01*
X0080780Y0059918D02*
X0080780Y0059918D01*
X0080170Y0058320D02*
X0081389Y0058320D01*
X0082987Y0056721D02*
X0078572Y0056721D01*
X0078728Y0055123D02*
X0082831Y0055123D01*
X0081233Y0053524D02*
X0080326Y0053524D01*
X0080780Y0051926D02*
X0080780Y0051926D01*
X0080780Y0050327D02*
X0080780Y0050327D01*
X0080579Y0048729D02*
X0080980Y0048729D01*
X0082578Y0047130D02*
X0078981Y0047130D01*
X0072578Y0047130D02*
X0065780Y0047130D01*
X0065780Y0048729D02*
X0070980Y0048729D01*
X0070780Y0050327D02*
X0065780Y0050327D01*
X0065780Y0051926D02*
X0070780Y0051926D01*
X0071233Y0053524D02*
X0065780Y0053524D01*
X0065780Y0055123D02*
X0072831Y0055123D01*
X0072987Y0056721D02*
X0065780Y0056721D01*
X0065780Y0058320D02*
X0071389Y0058320D01*
X0070780Y0059918D02*
X0065780Y0059918D01*
X0065780Y0061517D02*
X0070780Y0061517D01*
X0070824Y0063115D02*
X0065780Y0063115D01*
X0087280Y0075903D02*
X0136280Y0075903D01*
X0136280Y0077502D02*
X0087280Y0077502D01*
X0087280Y0079100D02*
X0136280Y0079100D01*
X0136280Y0080699D02*
X0087280Y0080699D01*
X0087280Y0082297D02*
X0136280Y0082297D01*
X0136280Y0083896D02*
X0087280Y0083896D01*
X0087280Y0085494D02*
X0136280Y0085494D01*
X0137337Y0087093D02*
X0087280Y0087093D01*
X0087280Y0088691D02*
X0146280Y0088691D01*
X0146280Y0087093D02*
X0145222Y0087093D01*
X0153280Y0087093D02*
X0214280Y0087093D01*
X0214280Y0088691D02*
X0153280Y0088691D01*
X0153280Y0089735D02*
X0154065Y0089409D01*
X0155494Y0089409D01*
X0156813Y0089956D01*
X0157357Y0090500D01*
X0177277Y0090500D01*
X0178196Y0090881D01*
X0179196Y0091881D01*
X0179899Y0092584D01*
X0180280Y0093503D01*
X0180280Y0094422D01*
X0180823Y0094966D01*
X0181370Y0096286D01*
X0181370Y0097714D01*
X0180823Y0099034D01*
X0179813Y0100044D01*
X0178494Y0100591D01*
X0177065Y0100591D01*
X0175746Y0100044D01*
X0174736Y0099034D01*
X0174189Y0097714D01*
X0174189Y0096286D01*
X0174514Y0095500D01*
X0157357Y0095500D01*
X0156813Y0096044D01*
X0155494Y0096591D01*
X0154065Y0096591D01*
X0153280Y0096265D01*
X0153280Y0105422D01*
X0153746Y0104956D01*
X0155065Y0104409D01*
X0156494Y0104409D01*
X0157813Y0104956D01*
X0158823Y0105966D01*
X0159370Y0107286D01*
X0159370Y0108714D01*
X0158823Y0110034D01*
X0157813Y0111044D01*
X0156494Y0111591D01*
X0155280Y0111591D01*
X0155280Y0122964D01*
X0155815Y0123500D01*
X0202277Y0123500D01*
X0203196Y0123881D01*
X0205780Y0126464D01*
X0207660Y0124584D01*
X0208363Y0123881D01*
X0209282Y0123500D01*
X0212202Y0123500D01*
X0212746Y0122956D01*
X0214065Y0122409D01*
X0214280Y0122409D01*
X0214280Y0079578D01*
X0213736Y0079034D01*
X0213189Y0077714D01*
X0213189Y0076500D01*
X0141280Y0076500D01*
X0141280Y0078409D01*
X0142494Y0078409D01*
X0143813Y0078956D01*
X0144357Y0079500D01*
X0149277Y0079500D01*
X0150196Y0079881D01*
X0150899Y0080584D01*
X0152899Y0082584D01*
X0153280Y0083503D01*
X0153280Y0089735D01*
X0157147Y0090290D02*
X0214280Y0090290D01*
X0214280Y0091888D02*
X0179203Y0091888D01*
X0179196Y0091881D02*
X0179196Y0091881D01*
X0180273Y0093487D02*
X0214280Y0093487D01*
X0214280Y0095085D02*
X0180873Y0095085D01*
X0181370Y0096684D02*
X0214280Y0096684D01*
X0214280Y0098282D02*
X0199140Y0098282D01*
X0198813Y0097956D02*
X0199823Y0098966D01*
X0200370Y0100286D01*
X0200370Y0101714D01*
X0199823Y0103034D01*
X0198813Y0104044D01*
X0198280Y0104265D01*
X0198280Y0110422D01*
X0198823Y0110966D01*
X0199370Y0112286D01*
X0199370Y0113714D01*
X0198823Y0115034D01*
X0197813Y0116044D01*
X0196494Y0116591D01*
X0195065Y0116591D01*
X0193746Y0116044D01*
X0192736Y0115034D01*
X0192189Y0113714D01*
X0192189Y0112286D01*
X0192736Y0110966D01*
X0193280Y0110422D01*
X0193280Y0101933D01*
X0193189Y0101714D01*
X0193189Y0100286D01*
X0193736Y0098966D01*
X0194746Y0097956D01*
X0196065Y0097409D01*
X0197494Y0097409D01*
X0198813Y0097956D01*
X0200202Y0099881D02*
X0214280Y0099881D01*
X0214280Y0101479D02*
X0200370Y0101479D01*
X0199779Y0103078D02*
X0214280Y0103078D01*
X0214280Y0104676D02*
X0198280Y0104676D01*
X0198280Y0106275D02*
X0214280Y0106275D01*
X0214280Y0107873D02*
X0198280Y0107873D01*
X0198280Y0109472D02*
X0214280Y0109472D01*
X0214280Y0111070D02*
X0198867Y0111070D01*
X0199370Y0112669D02*
X0214280Y0112669D01*
X0214280Y0114268D02*
X0199141Y0114268D01*
X0197991Y0115866D02*
X0214280Y0115866D01*
X0214280Y0117465D02*
X0155280Y0117465D01*
X0155280Y0119063D02*
X0214280Y0119063D01*
X0214280Y0120662D02*
X0155280Y0120662D01*
X0155280Y0122260D02*
X0214280Y0122260D01*
X0219280Y0122260D02*
X0275220Y0122260D01*
X0273780Y0122260D02*
X0297780Y0122260D01*
X0297780Y0120662D02*
X0273780Y0120662D01*
X0275220Y0120662D02*
X0219280Y0120662D01*
X0219280Y0119063D02*
X0275220Y0119063D01*
X0273780Y0119063D02*
X0288934Y0119063D01*
X0289468Y0119284D02*
X0288077Y0118708D01*
X0287012Y0117644D01*
X0286436Y0116253D01*
X0286436Y0114747D01*
X0286587Y0114382D01*
X0285364Y0112241D01*
X0284077Y0111708D01*
X0283012Y0110644D01*
X0282436Y0109253D01*
X0282436Y0107747D01*
X0283012Y0106356D01*
X0284077Y0105292D01*
X0285468Y0104716D01*
X0286973Y0104716D01*
X0288364Y0105292D01*
X0289429Y0106356D01*
X0290005Y0107747D01*
X0290005Y0109253D01*
X0289854Y0109618D01*
X0291077Y0111759D01*
X0292364Y0112292D01*
X0293429Y0113356D01*
X0294005Y0114747D01*
X0294005Y0116253D01*
X0293429Y0117644D01*
X0292364Y0118708D01*
X0290973Y0119284D01*
X0289468Y0119284D01*
X0291507Y0119063D02*
X0297780Y0119063D01*
X0297780Y0117465D02*
X0293503Y0117465D01*
X0294220Y0118500D02*
X0294220Y0114000D01*
X0293806Y0114268D02*
X0297780Y0114268D01*
X0297780Y0115866D02*
X0294005Y0115866D01*
X0292741Y0112669D02*
X0297780Y0112669D01*
X0297780Y0111070D02*
X0290684Y0111070D01*
X0289914Y0109472D02*
X0297780Y0109472D01*
X0297780Y0107873D02*
X0290005Y0107873D01*
X0289347Y0106275D02*
X0297780Y0106275D01*
X0297780Y0104676D02*
X0273780Y0104676D01*
X0275220Y0104676D02*
X0219280Y0104676D01*
X0219280Y0103078D02*
X0275220Y0103078D01*
X0273780Y0103078D02*
X0297780Y0103078D01*
X0297780Y0103000D02*
X0273780Y0103000D01*
X0273780Y0124000D01*
X0297780Y0124000D01*
X0297780Y0103000D01*
X0283094Y0106275D02*
X0273780Y0106275D01*
X0275220Y0106275D02*
X0219280Y0106275D01*
X0219280Y0107873D02*
X0275220Y0107873D01*
X0273780Y0107873D02*
X0282436Y0107873D01*
X0282527Y0109472D02*
X0273780Y0109472D01*
X0275220Y0109472D02*
X0219280Y0109472D01*
X0219280Y0111070D02*
X0275220Y0111070D01*
X0273780Y0111070D02*
X0283439Y0111070D01*
X0285608Y0112669D02*
X0273780Y0112669D01*
X0275220Y0112669D02*
X0219280Y0112669D01*
X0219280Y0114268D02*
X0275220Y0114268D01*
X0273780Y0114268D02*
X0286522Y0114268D01*
X0286436Y0115866D02*
X0273780Y0115866D01*
X0275220Y0115866D02*
X0219280Y0115866D01*
X0219280Y0117465D02*
X0275220Y0117465D01*
X0273780Y0117465D02*
X0286938Y0117465D01*
X0290220Y0115500D02*
X0286220Y0108500D01*
X0275220Y0101479D02*
X0219280Y0101479D01*
X0219280Y0099881D02*
X0275220Y0099881D01*
X0275220Y0098282D02*
X0219280Y0098282D01*
X0219280Y0096684D02*
X0275220Y0096684D01*
X0275220Y0095085D02*
X0219280Y0095085D01*
X0219280Y0093487D02*
X0275220Y0093487D01*
X0275220Y0091888D02*
X0219280Y0091888D01*
X0219280Y0090290D02*
X0275220Y0090290D01*
X0275220Y0088691D02*
X0219280Y0088691D01*
X0219280Y0087093D02*
X0275220Y0087093D01*
X0275220Y0085494D02*
X0219280Y0085494D01*
X0219280Y0083896D02*
X0275220Y0083896D01*
X0275220Y0082297D02*
X0219280Y0082297D01*
X0219280Y0080699D02*
X0275220Y0080699D01*
X0275220Y0079100D02*
X0219757Y0079100D01*
X0220370Y0077502D02*
X0275220Y0077502D01*
X0275220Y0075903D02*
X0220212Y0075903D01*
X0213189Y0077502D02*
X0141280Y0077502D01*
X0143958Y0079100D02*
X0213802Y0079100D01*
X0214280Y0080699D02*
X0151014Y0080699D01*
X0152612Y0082297D02*
X0214280Y0082297D01*
X0214280Y0083896D02*
X0153280Y0083896D01*
X0153280Y0085494D02*
X0214280Y0085494D01*
X0194419Y0098282D02*
X0181135Y0098282D01*
X0179976Y0099881D02*
X0193357Y0099881D01*
X0193189Y0101479D02*
X0153280Y0101479D01*
X0153280Y0099881D02*
X0175583Y0099881D01*
X0174424Y0098282D02*
X0153280Y0098282D01*
X0153280Y0096684D02*
X0174189Y0096684D01*
X0157138Y0104676D02*
X0193280Y0104676D01*
X0193280Y0103078D02*
X0153280Y0103078D01*
X0153280Y0104676D02*
X0154421Y0104676D01*
X0158951Y0106275D02*
X0193280Y0106275D01*
X0193280Y0107873D02*
X0159370Y0107873D01*
X0159056Y0109472D02*
X0193280Y0109472D01*
X0192692Y0111070D02*
X0157749Y0111070D01*
X0155280Y0112669D02*
X0192189Y0112669D01*
X0192418Y0114268D02*
X0155280Y0114268D01*
X0155280Y0115866D02*
X0193568Y0115866D01*
X0203142Y0123859D02*
X0208417Y0123859D01*
X0206787Y0125457D02*
X0204772Y0125457D01*
X0210661Y0128654D02*
X0212356Y0128654D01*
X0210280Y0130253D02*
X0275220Y0130253D01*
X0275220Y0131851D02*
X0210280Y0131851D01*
X0210280Y0133450D02*
X0275220Y0133450D01*
X0275220Y0135048D02*
X0210280Y0135048D01*
X0210280Y0136647D02*
X0275220Y0136647D01*
X0275220Y0138245D02*
X0210280Y0138245D01*
X0210280Y0139844D02*
X0275220Y0139844D01*
X0275220Y0141442D02*
X0210280Y0141442D01*
X0210280Y0143041D02*
X0275220Y0143041D01*
X0275220Y0144639D02*
X0210280Y0144639D01*
X0210280Y0146238D02*
X0275220Y0146238D01*
X0275220Y0147836D02*
X0210280Y0147836D01*
X0210280Y0149435D02*
X0275220Y0149435D01*
X0275220Y0151033D02*
X0210280Y0151033D01*
X0210280Y0152632D02*
X0275220Y0152632D01*
X0275220Y0154230D02*
X0210280Y0154230D01*
X0210280Y0155829D02*
X0275220Y0155829D01*
X0275220Y0157427D02*
X0210280Y0157427D01*
X0210280Y0159026D02*
X0275220Y0159026D01*
X0275220Y0160624D02*
X0210280Y0160624D01*
X0210280Y0162223D02*
X0275220Y0162223D01*
X0275220Y0163821D02*
X0211136Y0163821D01*
X0212245Y0165420D02*
X0275220Y0165420D01*
X0275220Y0167018D02*
X0244333Y0167018D01*
X0245913Y0168617D02*
X0275220Y0168617D01*
X0275220Y0170215D02*
X0246280Y0170215D01*
X0246280Y0171814D02*
X0275220Y0171814D01*
X0275220Y0173412D02*
X0246280Y0173412D01*
X0246280Y0175011D02*
X0275220Y0175011D01*
X0275220Y0176609D02*
X0246280Y0176609D01*
X0249876Y0195792D02*
X0250283Y0195792D01*
X0251691Y0197390D02*
X0248468Y0197390D01*
X0241691Y0197390D02*
X0238468Y0197390D01*
X0239876Y0195792D02*
X0240283Y0195792D01*
X0231691Y0197390D02*
X0228468Y0197390D01*
X0229876Y0195792D02*
X0230283Y0195792D01*
X0221691Y0197390D02*
X0218468Y0197390D01*
X0219876Y0195792D02*
X0220283Y0195792D01*
X0211691Y0197390D02*
X0208468Y0197390D01*
X0209876Y0195792D02*
X0210283Y0195792D01*
X0201691Y0197390D02*
X0198468Y0197390D01*
X0199876Y0195792D02*
X0200283Y0195792D01*
X0191691Y0197390D02*
X0188468Y0197390D01*
X0189876Y0195792D02*
X0190283Y0195792D01*
X0181691Y0197390D02*
X0172468Y0197390D01*
X0173876Y0195792D02*
X0180283Y0195792D01*
X0179621Y0194193D02*
X0174538Y0194193D01*
X0174580Y0192595D02*
X0179580Y0192595D01*
X0179956Y0190996D02*
X0174203Y0190996D01*
X0173255Y0189398D02*
X0180904Y0189398D01*
X0187956Y0184602D02*
X0192603Y0184602D01*
X0191005Y0183003D02*
X0189554Y0183003D01*
X0196280Y0170215D02*
X0087280Y0170215D01*
X0087280Y0168617D02*
X0196280Y0168617D01*
X0196280Y0167018D02*
X0087280Y0167018D01*
X0087280Y0165420D02*
X0196280Y0165420D01*
X0196280Y0163821D02*
X0087280Y0163821D01*
X0087280Y0162223D02*
X0196395Y0162223D01*
X0197280Y0160624D02*
X0087280Y0160624D01*
X0087280Y0159026D02*
X0197280Y0159026D01*
X0197280Y0157427D02*
X0087280Y0157427D01*
X0087280Y0155829D02*
X0197280Y0155829D01*
X0197280Y0154230D02*
X0139363Y0154230D01*
X0136196Y0154230D02*
X0087280Y0154230D01*
X0087280Y0152632D02*
X0134569Y0152632D01*
X0134189Y0151033D02*
X0087280Y0151033D01*
X0087280Y0149435D02*
X0134541Y0149435D01*
X0136035Y0147836D02*
X0087280Y0147836D01*
X0087280Y0146238D02*
X0144280Y0146238D01*
X0144280Y0147836D02*
X0139524Y0147836D01*
X0148282Y0151033D02*
X0197280Y0151033D01*
X0197280Y0149435D02*
X0149280Y0149435D01*
X0149280Y0147836D02*
X0197280Y0147836D01*
X0197280Y0146238D02*
X0149280Y0146238D01*
X0149280Y0144639D02*
X0197280Y0144639D01*
X0197280Y0143041D02*
X0149280Y0143041D01*
X0149280Y0141442D02*
X0197280Y0141442D01*
X0197280Y0139844D02*
X0149280Y0139844D01*
X0149280Y0138245D02*
X0197280Y0138245D01*
X0197280Y0136647D02*
X0149280Y0136647D01*
X0149280Y0135048D02*
X0156292Y0135048D01*
X0154694Y0133450D02*
X0149280Y0133450D01*
X0149280Y0131851D02*
X0151095Y0131851D01*
X0149497Y0130253D02*
X0149280Y0130253D01*
X0144280Y0127056D02*
X0133275Y0127056D01*
X0133370Y0128654D02*
X0140048Y0128654D01*
X0139203Y0130253D02*
X0132605Y0130253D01*
X0131464Y0131851D02*
X0139246Y0131851D01*
X0140151Y0133450D02*
X0129398Y0133450D01*
X0126284Y0127056D02*
X0087280Y0127056D01*
X0087280Y0125457D02*
X0127245Y0125457D01*
X0132314Y0125457D02*
X0144280Y0125457D01*
X0144280Y0123859D02*
X0087280Y0123859D01*
X0087280Y0122260D02*
X0144280Y0122260D01*
X0144280Y0120662D02*
X0087280Y0120662D01*
X0087280Y0119063D02*
X0127765Y0119063D01*
X0127189Y0117465D02*
X0087280Y0117465D01*
X0087280Y0115866D02*
X0125110Y0115866D01*
X0124280Y0114268D02*
X0087280Y0114268D01*
X0087280Y0112669D02*
X0124280Y0112669D01*
X0124280Y0111070D02*
X0087280Y0111070D01*
X0087280Y0109472D02*
X0124292Y0109472D01*
X0125371Y0107873D02*
X0087280Y0107873D01*
X0087280Y0106275D02*
X0146280Y0106275D01*
X0146280Y0104676D02*
X0087280Y0104676D01*
X0087280Y0103078D02*
X0146280Y0103078D01*
X0146280Y0101479D02*
X0087280Y0101479D01*
X0087280Y0099881D02*
X0146280Y0099881D01*
X0146280Y0098282D02*
X0087280Y0098282D01*
X0087280Y0096684D02*
X0146280Y0096684D01*
X0146280Y0095085D02*
X0087280Y0095085D01*
X0087280Y0093487D02*
X0146280Y0093487D01*
X0146280Y0091888D02*
X0087280Y0091888D01*
X0087280Y0090290D02*
X0146280Y0090290D01*
X0142422Y0064714D02*
X0139137Y0064714D01*
X0140735Y0063115D02*
X0140824Y0063115D01*
X0140780Y0061517D02*
X0140780Y0061517D01*
X0140780Y0059918D02*
X0140780Y0059918D01*
X0141139Y0058320D02*
X0140170Y0058320D01*
X0139541Y0056721D02*
X0138572Y0056721D01*
X0142780Y0056000D02*
X0263780Y0056000D01*
X0265780Y0058000D01*
X0265780Y0061000D01*
X0270780Y0061517D02*
X0275220Y0061517D01*
X0275220Y0063115D02*
X0270735Y0063115D01*
X0269137Y0064714D02*
X0275220Y0064714D01*
X0275220Y0066312D02*
X0254280Y0066312D01*
X0254280Y0067911D02*
X0275220Y0067911D01*
X0275220Y0069509D02*
X0254275Y0069509D01*
X0253207Y0071108D02*
X0275220Y0071108D01*
X0275220Y0072706D02*
X0251609Y0072706D01*
X0249748Y0074305D02*
X0275220Y0074305D01*
X0262422Y0064714D02*
X0259137Y0064714D01*
X0260735Y0063115D02*
X0260824Y0063115D01*
X0260780Y0061517D02*
X0260780Y0061517D01*
X0260780Y0059918D02*
X0260780Y0059918D01*
X0268572Y0056721D02*
X0275220Y0056721D01*
X0275220Y0055123D02*
X0268728Y0055123D01*
X0270326Y0053524D02*
X0275220Y0053524D01*
X0275220Y0051926D02*
X0270780Y0051926D01*
X0270780Y0050327D02*
X0275220Y0050327D01*
X0275220Y0048729D02*
X0270579Y0048729D01*
X0268981Y0047130D02*
X0275220Y0047130D01*
X0275220Y0045532D02*
X0258580Y0045532D01*
X0258580Y0043933D02*
X0275220Y0043933D01*
X0275220Y0042334D02*
X0258074Y0042334D01*
X0256475Y0040736D02*
X0275220Y0040736D01*
X0275220Y0039137D02*
X0157877Y0039137D01*
X0157580Y0037539D02*
X0275220Y0037539D01*
X0275220Y0035940D02*
X0258917Y0035940D01*
X0258195Y0036663D02*
X0256174Y0037500D01*
X0253985Y0037500D01*
X0251964Y0036663D01*
X0250417Y0035115D01*
X0250080Y0034301D01*
X0249742Y0035115D01*
X0248195Y0036663D01*
X0246174Y0037500D01*
X0243985Y0037500D01*
X0241964Y0036663D01*
X0240417Y0035115D01*
X0240080Y0034301D01*
X0239742Y0035115D01*
X0238195Y0036663D01*
X0236174Y0037500D01*
X0233985Y0037500D01*
X0231964Y0036663D01*
X0230417Y0035115D01*
X0230080Y0034301D01*
X0229742Y0035115D01*
X0228195Y0036663D01*
X0226174Y0037500D01*
X0223985Y0037500D01*
X0221964Y0036663D01*
X0220417Y0035115D01*
X0220080Y0034301D01*
X0219742Y0035115D01*
X0218195Y0036663D01*
X0216174Y0037500D01*
X0213985Y0037500D01*
X0211964Y0036663D01*
X0210417Y0035115D01*
X0210080Y0034301D01*
X0209742Y0035115D01*
X0208195Y0036663D01*
X0206174Y0037500D01*
X0203985Y0037500D01*
X0201964Y0036663D01*
X0200417Y0035115D01*
X0199580Y0033094D01*
X0199580Y0030906D01*
X0200417Y0028884D01*
X0201964Y0027337D01*
X0203985Y0026500D01*
X0206174Y0026500D01*
X0208195Y0027337D01*
X0209742Y0028884D01*
X0210080Y0029699D01*
X0210417Y0028884D01*
X0211964Y0027337D01*
X0213985Y0026500D01*
X0216174Y0026500D01*
X0218195Y0027337D01*
X0219742Y0028884D01*
X0220080Y0029699D01*
X0220417Y0028884D01*
X0221964Y0027337D01*
X0223985Y0026500D01*
X0226174Y0026500D01*
X0228195Y0027337D01*
X0229742Y0028884D01*
X0230080Y0029699D01*
X0230417Y0028884D01*
X0231964Y0027337D01*
X0233985Y0026500D01*
X0236174Y0026500D01*
X0238195Y0027337D01*
X0239742Y0028884D01*
X0240080Y0029699D01*
X0240417Y0028884D01*
X0241964Y0027337D01*
X0243985Y0026500D01*
X0246174Y0026500D01*
X0248195Y0027337D01*
X0249742Y0028884D01*
X0250080Y0029699D01*
X0250417Y0028884D01*
X0251964Y0027337D01*
X0253985Y0026500D01*
X0256174Y0026500D01*
X0258195Y0027337D01*
X0259742Y0028884D01*
X0260580Y0030906D01*
X0260580Y0033094D01*
X0259742Y0035115D01*
X0258195Y0036663D01*
X0260063Y0034342D02*
X0275220Y0034342D01*
X0275220Y0032743D02*
X0260580Y0032743D01*
X0260580Y0031145D02*
X0275220Y0031145D01*
X0275220Y0029546D02*
X0260016Y0029546D01*
X0258806Y0027948D02*
X0271102Y0027948D01*
X0268449Y0026349D02*
X0157780Y0026349D01*
X0157410Y0024751D02*
X0266983Y0024751D01*
X0266321Y0023152D02*
X0257343Y0023152D01*
X0257195Y0023300D02*
X0252805Y0023300D01*
X0250000Y0020495D01*
X0247195Y0023300D01*
X0242805Y0023300D01*
X0240000Y0020495D01*
X0237195Y0023300D01*
X0232805Y0023300D01*
X0230000Y0020495D01*
X0227195Y0023300D01*
X0222805Y0023300D01*
X0220000Y0020495D01*
X0217195Y0023300D01*
X0212805Y0023300D01*
X0210000Y0020495D01*
X0207195Y0023300D01*
X0202805Y0023300D01*
X0199700Y0020195D01*
X0199700Y0015805D01*
X0202805Y0012700D01*
X0207195Y0012700D01*
X0210000Y0015505D01*
X0212805Y0012700D01*
X0217195Y0012700D01*
X0220000Y0015505D01*
X0222805Y0012700D01*
X0227195Y0012700D01*
X0230000Y0015505D01*
X0232805Y0012700D01*
X0237195Y0012700D01*
X0240000Y0015505D01*
X0242805Y0012700D01*
X0247195Y0012700D01*
X0250000Y0015505D01*
X0252805Y0012700D01*
X0257195Y0012700D01*
X0260300Y0015805D01*
X0260300Y0020195D01*
X0257195Y0023300D01*
X0258941Y0021554D02*
X0265874Y0021554D01*
X0265874Y0019955D02*
X0260300Y0019955D01*
X0260300Y0018357D02*
X0266110Y0018357D01*
X0266773Y0016758D02*
X0260300Y0016758D01*
X0259655Y0015160D02*
X0267940Y0015160D01*
X0269873Y0013561D02*
X0258057Y0013561D01*
X0251943Y0013561D02*
X0248057Y0013561D01*
X0249655Y0015160D02*
X0250345Y0015160D01*
X0241943Y0013561D02*
X0238057Y0013561D01*
X0239655Y0015160D02*
X0240345Y0015160D01*
X0231943Y0013561D02*
X0228057Y0013561D01*
X0229655Y0015160D02*
X0230345Y0015160D01*
X0221943Y0013561D02*
X0218057Y0013561D01*
X0219655Y0015160D02*
X0220345Y0015160D01*
X0211943Y0013561D02*
X0208057Y0013561D01*
X0209655Y0015160D02*
X0210345Y0015160D01*
X0201943Y0013561D02*
X0188057Y0013561D01*
X0189655Y0015160D02*
X0200345Y0015160D01*
X0199700Y0016758D02*
X0190300Y0016758D01*
X0190300Y0018357D02*
X0199700Y0018357D01*
X0199700Y0019955D02*
X0190300Y0019955D01*
X0188941Y0021554D02*
X0201059Y0021554D01*
X0202657Y0023152D02*
X0187343Y0023152D01*
X0182657Y0023152D02*
X0157343Y0023152D01*
X0158941Y0021554D02*
X0161341Y0021554D01*
X0164816Y0021554D02*
X0165184Y0021554D01*
X0165184Y0019955D02*
X0164816Y0019955D01*
X0164816Y0018357D02*
X0165184Y0018357D01*
X0165184Y0016758D02*
X0164816Y0016758D01*
X0164816Y0015160D02*
X0165184Y0015160D01*
X0165184Y0013561D02*
X0164816Y0013561D01*
X0162226Y0013561D02*
X0158057Y0013561D01*
X0159655Y0015160D02*
X0160628Y0015160D01*
X0167774Y0013561D02*
X0172226Y0013561D01*
X0170628Y0015160D02*
X0169372Y0015160D01*
X0174816Y0015160D02*
X0175184Y0015160D01*
X0175184Y0016758D02*
X0174816Y0016758D01*
X0174816Y0018357D02*
X0175184Y0018357D01*
X0175184Y0019955D02*
X0174816Y0019955D01*
X0174816Y0021554D02*
X0175184Y0021554D01*
X0178659Y0021554D02*
X0181059Y0021554D01*
X0171341Y0021554D02*
X0168659Y0021554D01*
X0168419Y0027948D02*
X0171540Y0027948D01*
X0170281Y0029546D02*
X0169678Y0029546D01*
X0165164Y0029546D02*
X0164795Y0029546D01*
X0164795Y0027948D02*
X0165164Y0027948D01*
X0161540Y0027948D02*
X0158706Y0027948D01*
X0159916Y0029546D02*
X0160281Y0029546D01*
X0164795Y0031145D02*
X0165164Y0031145D01*
X0165164Y0032743D02*
X0164795Y0032743D01*
X0164795Y0034342D02*
X0165164Y0034342D01*
X0165164Y0035940D02*
X0164795Y0035940D01*
X0161425Y0035940D02*
X0158817Y0035940D01*
X0159963Y0034342D02*
X0160224Y0034342D01*
X0168534Y0035940D02*
X0171425Y0035940D01*
X0170224Y0034342D02*
X0169735Y0034342D01*
X0174795Y0034342D02*
X0175164Y0034342D01*
X0175164Y0035940D02*
X0174795Y0035940D01*
X0178534Y0035940D02*
X0181142Y0035940D01*
X0179996Y0034342D02*
X0179735Y0034342D01*
X0175164Y0032743D02*
X0174795Y0032743D01*
X0174795Y0031145D02*
X0175164Y0031145D01*
X0175164Y0029546D02*
X0174795Y0029546D01*
X0174795Y0027948D02*
X0175164Y0027948D01*
X0178419Y0027948D02*
X0181253Y0027948D01*
X0180043Y0029546D02*
X0179678Y0029546D01*
X0188706Y0027948D02*
X0201353Y0027948D01*
X0200143Y0029546D02*
X0189916Y0029546D01*
X0190480Y0031145D02*
X0199580Y0031145D01*
X0199580Y0032743D02*
X0190480Y0032743D01*
X0189963Y0034342D02*
X0200096Y0034342D01*
X0201242Y0035940D02*
X0188817Y0035940D01*
X0208917Y0035940D02*
X0211242Y0035940D01*
X0210096Y0034342D02*
X0210063Y0034342D01*
X0210016Y0029546D02*
X0210143Y0029546D01*
X0211353Y0027948D02*
X0208806Y0027948D01*
X0207343Y0023152D02*
X0212657Y0023152D01*
X0211059Y0021554D02*
X0208941Y0021554D01*
X0217343Y0023152D02*
X0222657Y0023152D01*
X0221059Y0021554D02*
X0218941Y0021554D01*
X0227343Y0023152D02*
X0232657Y0023152D01*
X0231059Y0021554D02*
X0228941Y0021554D01*
X0237343Y0023152D02*
X0242657Y0023152D01*
X0241059Y0021554D02*
X0238941Y0021554D01*
X0247343Y0023152D02*
X0252657Y0023152D01*
X0251059Y0021554D02*
X0248941Y0021554D01*
X0248806Y0027948D02*
X0251353Y0027948D01*
X0250143Y0029546D02*
X0250016Y0029546D01*
X0241353Y0027948D02*
X0238806Y0027948D01*
X0240016Y0029546D02*
X0240143Y0029546D01*
X0240063Y0034342D02*
X0240096Y0034342D01*
X0241242Y0035940D02*
X0238917Y0035940D01*
X0231242Y0035940D02*
X0228917Y0035940D01*
X0230063Y0034342D02*
X0230096Y0034342D01*
X0230016Y0029546D02*
X0230143Y0029546D01*
X0231353Y0027948D02*
X0228806Y0027948D01*
X0221353Y0027948D02*
X0218806Y0027948D01*
X0220016Y0029546D02*
X0220143Y0029546D01*
X0220063Y0034342D02*
X0220096Y0034342D01*
X0221242Y0035940D02*
X0218917Y0035940D01*
X0218981Y0047130D02*
X0222578Y0047130D01*
X0220980Y0048729D02*
X0220579Y0048729D01*
X0220780Y0048929D02*
X0220780Y0053071D01*
X0220780Y0048929D01*
X0220780Y0050327D02*
X0220780Y0050327D01*
X0220780Y0051926D02*
X0220780Y0051926D01*
X0220780Y0053071D02*
X0220908Y0053200D01*
X0220651Y0053200D01*
X0220780Y0053071D01*
X0230651Y0053200D02*
X0230908Y0053200D01*
X0230780Y0053071D01*
X0230780Y0048929D01*
X0230780Y0053071D01*
X0230651Y0053200D01*
X0230780Y0051926D02*
X0230780Y0051926D01*
X0230780Y0050327D02*
X0230780Y0050327D01*
X0230579Y0048729D02*
X0230980Y0048729D01*
X0232578Y0047130D02*
X0228981Y0047130D01*
X0212578Y0047130D02*
X0208981Y0047130D01*
X0210579Y0048729D02*
X0210980Y0048729D01*
X0210780Y0048929D02*
X0210780Y0053071D01*
X0210908Y0053200D01*
X0210651Y0053200D01*
X0210780Y0053071D01*
X0210780Y0048929D01*
X0210780Y0050327D02*
X0210780Y0050327D01*
X0210780Y0051926D02*
X0210780Y0051926D01*
X0202578Y0047130D02*
X0198981Y0047130D01*
X0200579Y0048729D02*
X0200980Y0048729D01*
X0200780Y0048929D02*
X0200780Y0053071D01*
X0200908Y0053200D01*
X0200651Y0053200D01*
X0200780Y0053071D01*
X0200780Y0048929D01*
X0200780Y0050327D02*
X0200780Y0050327D01*
X0200780Y0051926D02*
X0200780Y0051926D01*
X0192578Y0047130D02*
X0188981Y0047130D01*
X0190579Y0048729D02*
X0190980Y0048729D01*
X0190780Y0048929D02*
X0190780Y0053071D01*
X0190908Y0053200D01*
X0190651Y0053200D01*
X0190780Y0053071D01*
X0190780Y0048929D01*
X0190780Y0050327D02*
X0190780Y0050327D01*
X0190780Y0051926D02*
X0190780Y0051926D01*
X0180980Y0048729D02*
X0180579Y0048729D01*
X0180780Y0048929D02*
X0180780Y0053071D01*
X0180780Y0048929D01*
X0180780Y0050327D02*
X0180780Y0050327D01*
X0180780Y0051926D02*
X0180780Y0051926D01*
X0180780Y0053071D02*
X0180908Y0053200D01*
X0180651Y0053200D01*
X0180780Y0053071D01*
X0170908Y0053200D02*
X0170780Y0053071D01*
X0170780Y0048929D01*
X0170780Y0053071D01*
X0170651Y0053200D01*
X0170908Y0053200D01*
X0170780Y0051926D02*
X0170780Y0051926D01*
X0170780Y0050327D02*
X0170780Y0050327D01*
X0170579Y0048729D02*
X0170980Y0048729D01*
X0172578Y0047130D02*
X0168981Y0047130D01*
X0162578Y0047130D02*
X0158981Y0047130D01*
X0160579Y0048729D02*
X0160980Y0048729D01*
X0160780Y0048929D02*
X0160780Y0053071D01*
X0160908Y0053200D01*
X0160651Y0053200D01*
X0160780Y0053071D01*
X0160780Y0048929D01*
X0160780Y0050327D02*
X0160780Y0050327D01*
X0160780Y0051926D02*
X0160780Y0051926D01*
X0152578Y0047130D02*
X0148981Y0047130D01*
X0150579Y0048729D02*
X0150980Y0048729D01*
X0150780Y0048929D02*
X0150780Y0053071D01*
X0150908Y0053200D01*
X0150651Y0053200D01*
X0150780Y0053071D01*
X0150780Y0048929D01*
X0150780Y0050327D02*
X0150780Y0050327D01*
X0150780Y0051926D02*
X0150780Y0051926D01*
X0178981Y0047130D02*
X0182578Y0047130D01*
X0248917Y0035940D02*
X0251242Y0035940D01*
X0250096Y0034342D02*
X0250063Y0034342D01*
X0258981Y0047130D02*
X0262578Y0047130D01*
X0265780Y0051000D02*
X0255780Y0051000D01*
X0270170Y0058320D02*
X0275220Y0058320D01*
X0275220Y0059918D02*
X0270780Y0059918D01*
X0181943Y0013561D02*
X0177774Y0013561D01*
X0179372Y0015160D02*
X0180345Y0015160D01*
X0175184Y0013561D02*
X0174816Y0013561D01*
X0151943Y0013561D02*
X0148057Y0013561D01*
X0149655Y0015160D02*
X0150345Y0015160D01*
X0141943Y0013561D02*
X0138057Y0013561D01*
X0139655Y0015160D02*
X0140345Y0015160D01*
X0131943Y0013561D02*
X0128057Y0013561D01*
X0129655Y0015160D02*
X0130345Y0015160D01*
X0121943Y0013561D02*
X0118057Y0013561D01*
X0119655Y0015160D02*
X0120345Y0015160D01*
X0073306Y0010364D02*
X0275220Y0010364D01*
X0275220Y0011963D02*
X0069907Y0011963D01*
X0134370Y0117465D02*
X0144280Y0117465D01*
X0144280Y0119063D02*
X0133794Y0119063D01*
X0144280Y0135048D02*
X0087280Y0135048D01*
X0087280Y0136647D02*
X0144280Y0136647D01*
X0144280Y0138245D02*
X0087280Y0138245D01*
X0087280Y0139844D02*
X0144280Y0139844D01*
X0144280Y0141442D02*
X0087280Y0141442D01*
X0087280Y0143041D02*
X0144280Y0143041D01*
X0144280Y0144639D02*
X0087280Y0144639D01*
X0146683Y0152632D02*
X0197280Y0152632D01*
X0197280Y0135048D02*
X0168267Y0135048D01*
X0217203Y0128654D02*
X0275220Y0128654D01*
X0275220Y0127056D02*
X0218259Y0127056D01*
X0219280Y0125457D02*
X0275220Y0125457D01*
X0275220Y0123859D02*
X0219280Y0123859D01*
X0273780Y0123859D02*
X0297780Y0123859D01*
X0165691Y0197390D02*
X0162468Y0197390D01*
X0163876Y0195792D02*
X0164283Y0195792D01*
X0155691Y0197390D02*
X0152468Y0197390D01*
X0153876Y0195792D02*
X0154283Y0195792D01*
X0145691Y0197390D02*
X0142468Y0197390D01*
X0143876Y0195792D02*
X0144283Y0195792D01*
X0135691Y0197390D02*
X0132468Y0197390D01*
X0133876Y0195792D02*
X0134283Y0195792D01*
X0125691Y0197390D02*
X0122468Y0197390D01*
X0123876Y0195792D02*
X0124283Y0195792D01*
X0188279Y0203784D02*
X0191721Y0203784D01*
X0190122Y0205383D02*
X0189878Y0205383D01*
X0198279Y0203784D02*
X0201721Y0203784D01*
X0200122Y0205383D02*
X0199878Y0205383D01*
X0208279Y0203784D02*
X0211721Y0203784D01*
X0210122Y0205383D02*
X0209878Y0205383D01*
X0218279Y0203784D02*
X0221721Y0203784D01*
X0220122Y0205383D02*
X0219878Y0205383D01*
X0228279Y0203784D02*
X0231721Y0203784D01*
X0230122Y0205383D02*
X0229878Y0205383D01*
X0238279Y0203784D02*
X0241721Y0203784D01*
X0240122Y0205383D02*
X0239878Y0205383D01*
X0248279Y0203784D02*
X0251721Y0203784D01*
X0250122Y0205383D02*
X0249878Y0205383D01*
X0258279Y0203784D02*
X0265933Y0203784D01*
X0265874Y0205383D02*
X0259878Y0205383D01*
X0260300Y0206981D02*
X0265874Y0206981D01*
X0266498Y0208580D02*
X0260300Y0208580D01*
X0260300Y0210178D02*
X0267278Y0210178D01*
X0268876Y0211777D02*
X0258719Y0211777D01*
X0251281Y0211777D02*
X0248719Y0211777D01*
X0241281Y0211777D02*
X0238719Y0211777D01*
X0231281Y0211777D02*
X0228719Y0211777D01*
X0221281Y0211777D02*
X0218719Y0211777D01*
X0211281Y0211777D02*
X0208719Y0211777D01*
X0201281Y0211777D02*
X0198719Y0211777D01*
X0191281Y0211777D02*
X0188719Y0211777D01*
X0498220Y0110000D02*
X0502220Y0118000D01*
X0510220Y0118000D02*
X0506220Y0110000D01*
D19*
X0294220Y0118500D03*
X0290220Y0115500D03*
X0286220Y0108500D03*
X0270720Y0113500D03*
X0262720Y0113500D03*
X0255720Y0114000D03*
X0249220Y0114000D03*
X0238780Y0114000D03*
X0238780Y0093000D03*
X0227220Y0088500D03*
X0238780Y0134000D03*
X0222720Y0143000D03*
X0245220Y0159000D03*
X0267720Y0158500D03*
X0270720Y0150500D03*
X0267220Y0181000D03*
X0274220Y0189000D03*
X0267720Y0192500D03*
D20*
X0278720Y0113500D03*
D21*
X0498220Y0110000D03*
X0506220Y0110000D03*
X0502220Y0118000D03*
X0510220Y0118000D03*
M02*
